<svg width="40" height="40" viewBox="0 0 40 40" fill="none" xmlns="http://www.w3.org/2000/svg">
<g clip-path="url(#clip0_7_3079)">
<path d="M30.829 17.172L26.95 13.293C26.7614 13.1108 26.5088 13.01 26.2466 13.0123C25.9844 13.0146 25.7336 13.1198 25.5482 13.3052C25.3628 13.4906 25.2576 13.7414 25.2553 14.0036C25.2531 14.2658 25.3539 14.5184 25.536 14.707L29.415 18.586C29.5303 18.7035 29.631 18.8344 29.715 18.976C29.7 18.976 29.688 18.968 29.673 18.968L13.989 19C13.7238 19 13.4694 19.1053 13.2819 19.2929C13.0944 19.4804 12.989 19.7348 12.989 20C12.989 20.2652 13.0944 20.5196 13.2819 20.7071C13.4694 20.8946 13.7238 21 13.989 21L29.667 20.968C29.695 20.968 29.718 20.954 29.745 20.952C29.6563 21.1211 29.5438 21.2767 29.411 21.414L25.532 25.293C25.4365 25.3852 25.3603 25.4956 25.3079 25.6176C25.2555 25.7396 25.2279 25.8708 25.2268 26.0036C25.2256 26.1364 25.2509 26.268 25.3012 26.3909C25.3515 26.5138 25.4257 26.6255 25.5196 26.7194C25.6135 26.8133 25.7252 26.8875 25.8481 26.9378C25.971 26.9881 26.1026 27.0134 26.2354 27.0122C26.3682 27.0111 26.4994 26.9835 26.6214 26.9311C26.7434 26.8787 26.8538 26.8025 26.946 26.707L30.825 22.828C31.5749 22.0779 31.9962 21.0606 31.9962 20C31.9962 18.9393 31.5749 17.9221 30.825 17.172H30.829Z" fill="black"/>
<path d="M15 30H13C12.2044 30 11.4413 29.6839 10.8787 29.1213C10.3161 28.5587 10 27.7956 10 27V13C10 12.2044 10.3161 11.4413 10.8787 10.8787C11.4413 10.3161 12.2044 10 13 10H15C15.2652 10 15.5196 9.89464 15.7071 9.70711C15.8946 9.51957 16 9.26522 16 9C16 8.73478 15.8946 8.48043 15.7071 8.29289C15.5196 8.10536 15.2652 8 15 8H13C11.6744 8.00159 10.4036 8.52888 9.46622 9.46622C8.52888 10.4036 8.00159 11.6744 8 13L8 27C8.00159 28.3256 8.52888 29.5964 9.46622 30.5338C10.4036 31.4711 11.6744 31.9984 13 32H15C15.2652 32 15.5196 31.8946 15.7071 31.7071C15.8946 31.5196 16 31.2652 16 31C16 30.7348 15.8946 30.4804 15.7071 30.2929C15.5196 30.1054 15.2652 30 15 30Z" fill="black"/>
</g>
<defs>
<clipPath id="clip0_7_3079">
<rect width="24" height="24" fill="white" transform="translate(8 8)"/>
</clipPath>
</defs>
</svg>
