<svg width="24" height="24" viewBox="0 0 24 24" fill="none" xmlns="http://www.w3.org/2000/svg">
<path opacity="0.5" d="M22 12C22 17.523 17.523 22 12 22C6.477 22 2 17.523 2 12C2 6.477 6.477 2 12 2C17.523 2 22 6.477 22 12Z" fill="#FF7519"/>
<path d="M16.03 8.97001C16.1705 9.11064 16.2493 9.30126 16.2493 9.50001C16.2493 9.69876 16.1705 9.88939 16.03 10.03L11.03 15.03C10.8894 15.1705 10.6988 15.2494 10.5 15.2494C10.3013 15.2494 10.1106 15.1705 9.97 15.03L7.97 13.03C7.89631 12.9613 7.83721 12.8785 7.79622 12.7865C7.75523 12.6946 7.73319 12.5952 7.73141 12.4945C7.72963 12.3938 7.74816 12.2938 7.78588 12.2004C7.8236 12.107 7.87974 12.0222 7.95096 11.951C8.02218 11.8798 8.10701 11.8236 8.2004 11.7859C8.29379 11.7482 8.39382 11.7296 8.49452 11.7314C8.59523 11.7332 8.69454 11.7552 8.78654 11.7962C8.87854 11.8372 8.96134 11.8963 9.03 11.97L10.5 13.44L12.735 11.204L14.97 8.97001C15.1106 8.82956 15.3013 8.75067 15.5 8.75067C15.6988 8.75067 15.8894 8.82956 16.03 8.97001Z" fill="#17253E"/>
</svg>
