<svg width="24" height="24" viewBox="0 0 24 24" fill="none" xmlns="http://www.w3.org/2000/svg">
<path d="M22.829 9.17198L18.95 5.29298C18.7614 5.11082 18.5088 5.01003 18.2466 5.01231C17.9844 5.01458 17.7336 5.11975 17.5482 5.30516C17.3628 5.49057 17.2576 5.74138 17.2553 6.00358C17.2531 6.26578 17.3539 6.51838 17.536 6.70698L21.415 10.586C21.5303 10.7035 21.631 10.8344 21.715 10.976C21.7 10.976 21.688 10.968 21.673 10.968L5.98901 11C5.7238 11 5.46944 11.1053 5.28191 11.2929C5.09437 11.4804 4.98901 11.7348 4.98901 12C4.98901 12.2652 5.09437 12.5196 5.28191 12.7071C5.46944 12.8946 5.7238 13 5.98901 13L21.667 12.968C21.695 12.968 21.718 12.954 21.745 12.952C21.6563 13.1211 21.5438 13.2767 21.411 13.414L17.532 17.293C17.4365 17.3852 17.3603 17.4956 17.3079 17.6176C17.2555 17.7396 17.2279 17.8708 17.2268 18.0036C17.2256 18.1364 17.2509 18.268 17.3012 18.3909C17.3515 18.5138 17.4257 18.6255 17.5196 18.7194C17.6135 18.8133 17.7252 18.8875 17.8481 18.9378C17.971 18.9881 18.1026 19.0134 18.2354 19.0122C18.3682 19.0111 18.4994 18.9835 18.6214 18.9311C18.7434 18.8787 18.8538 18.8025 18.946 18.707L22.825 14.828C23.5749 14.0779 23.9962 13.0606 23.9962 12C23.9962 10.9393 23.5749 9.92209 22.825 9.17198H22.829Z" fill="black"/>
<path d="M7 22H5C4.20435 22 3.44129 21.6839 2.87868 21.1213C2.31607 20.5587 2 19.7956 2 19V5C2 4.20435 2.31607 3.44129 2.87868 2.87868C3.44129 2.31607 4.20435 2 5 2H7C7.26522 2 7.51957 1.89464 7.70711 1.70711C7.89464 1.51957 8 1.26522 8 1C8 0.734784 7.89464 0.48043 7.70711 0.292893C7.51957 0.105357 7.26522 0 7 0L5 0C3.67441 0.00158786 2.40356 0.528882 1.46622 1.46622C0.528882 2.40356 0.00158786 3.67441 0 5L0 19C0.00158786 20.3256 0.528882 21.5964 1.46622 22.5338C2.40356 23.4711 3.67441 23.9984 5 24H7C7.26522 24 7.51957 23.8946 7.70711 23.7071C7.89464 23.5196 8 23.2652 8 23C8 22.7348 7.89464 22.4804 7.70711 22.2929C7.51957 22.1054 7.26522 22 7 22Z" fill="black"/>
</svg>
