<svg width="216" height="249" viewBox="0 0 216 249" fill="none" xmlns="http://www.w3.org/2000/svg">
<path fill-rule="evenodd" clip-rule="evenodd" d="M108.79 238.449C162 238.449 205.345 208.374 207.352 170.771H10.2285C12.2355 208.375 55.602 238.449 108.791 238.449H108.79Z" fill="#CFEDFB"/>
<path fill-rule="evenodd" clip-rule="evenodd" d="M28.3561 168.894H210.128C211.174 168.894 212.028 169.749 212.028 170.771C212.028 171.793 211.174 172.627 210.128 172.627H28.3561C27.3098 172.627 26.4556 171.793 26.4556 170.771C26.4556 169.749 27.3098 168.894 28.3561 168.894ZM18.3421 168.894H7.4528C6.40655 168.894 5.55231 169.749 5.55231 170.771C5.55231 171.793 6.40655 172.627 7.4528 172.627H18.3421C19.3883 172.627 20.2426 171.793 20.2426 170.771C20.2426 169.749 19.3883 168.894 18.3421 168.894Z" fill="black"/>
<path fill-rule="evenodd" clip-rule="evenodd" d="M4.61252 190.292C6.89702 190.292 8.75477 188.477 8.75477 186.245C8.75477 184.013 6.89702 182.199 4.61252 182.199C2.32802 182.199 0.470276 184.013 0.470276 186.245C0.470276 188.477 2.32802 190.292 4.61252 190.292Z" fill="#FF7519"/>
<path fill-rule="evenodd" clip-rule="evenodd" d="M211.388 162.136C213.672 162.136 215.53 160.322 215.53 158.09C215.53 155.858 213.672 154.043 211.388 154.043C209.103 154.043 207.245 155.858 207.245 158.09C207.245 160.321 209.103 162.136 211.388 162.136Z" fill="#F69173"/>
<path fill-rule="evenodd" clip-rule="evenodd" d="M67.1325 248.043C68.2635 248.043 69.2033 247.125 69.2033 246.02C69.2033 244.915 68.2635 243.997 67.1325 243.997C66.0015 243.997 65.061 244.915 65.061 246.02C65.061 247.125 66.0008 248.043 67.1325 248.043Z" fill="#D1E287"/>
<path fill-rule="evenodd" clip-rule="evenodd" d="M198.96 222.286C201.244 222.286 203.102 220.471 203.102 218.239C203.102 216.007 201.244 214.193 198.96 214.193C196.675 214.193 194.818 216.007 194.818 218.239C194.818 220.471 196.675 222.286 198.96 222.286Z" fill="#8DD7F7"/>
<path fill-rule="evenodd" clip-rule="evenodd" d="M184.612 213.067C166.526 228.563 139.281 238.45 108.79 238.45C78.2986 238.45 51.0533 228.563 32.9686 213.067C21.3106 201.679 35.1038 184.39 49.8578 192.878C71.4233 205.288 123.395 235.384 184.612 213.067Z" fill="#B6E4FA"/>
<path fill-rule="evenodd" clip-rule="evenodd" d="M38.2208 32.1802C39.3735 32.1802 40.2915 31.2832 40.2915 30.1575C40.2915 29.0317 39.3735 28.155 38.2208 28.155C37.068 28.155 36.171 29.052 36.171 30.1575C36.171 31.263 37.089 32.1802 38.2208 32.1802Z" fill="#D1E287"/>
<path fill-rule="evenodd" clip-rule="evenodd" d="M206.583 94.353C207.715 94.353 208.654 93.4567 208.654 92.3302C208.654 91.2037 207.715 90.3277 206.583 90.3277C205.451 90.3277 204.512 91.2247 204.512 92.3302C204.512 93.4357 205.451 94.353 206.583 94.353Z" fill="#FF7519"/>
<path fill-rule="evenodd" clip-rule="evenodd" d="M9.22505 96.9397C10.3568 96.9397 11.2958 96.0217 11.2958 94.917C11.2958 93.8122 10.3568 92.8942 9.22505 92.8942C8.0933 92.8942 7.1543 93.8115 7.1543 94.917C7.1543 96.0225 8.0933 96.9397 9.22505 96.9397Z" fill="#F69173"/>
<path fill-rule="evenodd" clip-rule="evenodd" d="M134.264 8.09175C136.548 8.09175 138.406 6.2775 138.406 4.04625C138.406 1.815 136.548 0 134.264 0C131.979 0 130.121 1.81425 130.121 4.04625C130.121 6.27825 131.979 8.09175 134.264 8.09175Z" fill="#8DD7F7"/>
<path d="M106.987 200.738C106.987 200.738 102.439 193.511 95.9101 182.787C91.9883 176.345 87.3541 168.646 82.5616 160.495C81.4508 158.607 80.3341 156.698 79.2158 154.775C64.6583 129.749 50.4706 109.556 49.8188 94.5105C48.5071 64.3013 75.2101 39.7545 106.532 39.7545C137.853 39.7545 163.245 64.473 163.245 94.716C163.245 111.387 146.148 133.819 130.806 160.495C128.856 163.88 126.94 167.184 125.087 170.358C122.489 174.81 120.026 178.987 117.794 182.743C117.384 183.439 116.975 184.124 116.577 184.788C110.863 194.396 106.985 200.738 106.985 200.738L106.987 200.738Z" fill="#17253E"/>
<path d="M95.9101 182.787C102.439 193.511 106.987 200.738 106.987 200.738C106.987 200.738 110.864 194.395 116.579 184.787C116.976 184.124 117.386 183.438 117.795 182.742C159.725 183.479 192.273 188.902 192.273 195.479C192.273 202.562 154.544 208.304 107.999 208.304C61.4528 208.304 23.7241 202.562 23.7241 195.479C23.7241 189.022 55.0958 183.676 95.9108 182.786L95.9101 182.787Z" fill="#C7C7C5"/>
<path d="M106.532 59.6543C125.853 59.6543 141.517 75.318 141.517 94.6388C141.517 113.96 125.853 129.623 106.532 129.623C87.2116 129.623 71.5463 113.96 71.5463 94.6388C71.5463 75.318 87.2116 59.6543 106.532 59.6543Z" fill="#FF7519"/>
<path d="M111.095 94.716L118.782 86.1743C120.137 84.6698 120.014 82.3523 118.51 81C117.005 79.647 114.689 79.7678 113.334 81.2723L106.165 89.2373L98.9963 81.2723C97.6418 79.7678 95.3251 79.6463 93.8198 81C92.3176 82.3523 92.1953 84.6698 93.5483 86.1743L101.236 94.716L93.5483 103.257C92.1961 104.762 92.3176 107.079 93.8198 108.431C94.5218 109.061 95.3978 109.373 96.2716 109.373C97.2736 109.373 98.2718 108.963 98.9963 108.16L106.165 100.193L113.334 108.16C114.059 108.963 115.057 109.373 116.059 109.373C116.932 109.373 117.809 109.061 118.51 108.431C120.013 107.079 120.137 104.762 118.782 103.257L111.095 94.716Z" fill="#17253E"/>
</svg>
