<svg width="300" height="206" viewBox="0 0 300 206" fill="none" xmlns="http://www.w3.org/2000/svg">
<g clip-path="url(#clip0_560_5287)">
<path opacity="0.2" d="M9.3811 144.794C4.9836 124.811 25.8717 109.291 26.2597 86.0098C26.5831 62.7289 3.69022 28.6483 48.8939 5.75547C94.0976 -17.1374 139.495 35.7619 178.879 35.6326C218.262 35.5032 224.018 66.0917 260.75 73.076C297.482 80.0602 312.679 126.169 287.717 151.326C262.755 176.482 9.3811 144.794 9.3811 144.794Z" fill="#BDE9FC"/>
<path d="M145.048 173.248C128.428 173.248 35.6283 175.188 16.0982 169.239C-3.49651 163.354 -9.12272 126.04 21.4658 109.032C52.0542 92.0238 18.5557 50.3122 35.5636 29.0361C52.5716 7.75999 74.5591 -0.970333 122.932 21.2758C171.304 43.522 193.938 11.5108 214.18 25.8673C234.421 40.2239 220.776 72.4291 249.36 77.9906C312.153 90.2131 304.264 172.537 268.243 171.825C212.822 170.791 145.048 173.248 145.048 173.248Z" fill="#BDE9FC"/>
<g opacity="0.2">
<path d="M32.5341 118.086C63.1226 101.078 29.5593 59.431 46.5673 38.1549C63.5753 16.8788 85.5628 8.14843 133.871 30.3946C178.686 51.024 201.514 25.0271 220.721 32.5287C219.04 30.0712 216.906 27.8078 214.19 25.8678C193.948 11.5759 171.249 43.5224 122.877 21.2763C74.5044 -0.969902 52.5815 7.76042 35.5736 29.0365C18.5656 50.3127 52.1288 91.9595 21.5404 109.032C-8.72476 125.911 -3.55123 162.578 15.5261 169.045C6.98983 155.335 9.44725 130.955 32.5341 118.086Z" fill="#BDE9FC"/>
</g>
<path opacity="0.5" d="M235.465 88.1438H214.383C214.383 88.1438 213.801 87.4971 216 86.9797C218.199 86.5271 219.104 88.3378 221.173 83.9403C222.079 82.0649 224.213 81.2242 226.153 81.6122C228.093 82.0002 228.998 85.6217 230.356 85.1043C231.714 84.587 230.938 81.8709 234.042 81.6122C237.082 81.4182 236.629 84.8457 237.664 85.8157C238.699 86.7857 239.087 84.4576 240.186 84.975C241.285 85.4924 241.027 86.9151 242.061 86.9151C243.096 86.9151 245.295 87.3031 246.006 87.8204C246.718 88.2731 235.465 88.1438 235.465 88.1438Z" fill="white"/>
<path opacity="0.5" d="M47.4027 95.1929H26.3206C26.3206 95.1929 25.7385 94.5462 27.9373 94.0288C30.136 93.5115 31.0414 95.3869 33.1108 90.9894C34.0162 89.114 36.1503 88.2733 38.0903 88.6613C40.0304 89.0493 40.9358 92.6708 42.2938 92.1534C43.6519 91.6361 42.8759 88.92 45.98 88.6613C49.0194 88.4673 48.5667 91.8948 49.6014 92.8648C50.6361 93.8348 51.0242 91.5067 52.1235 92.0241C53.2229 92.5415 52.9642 93.9642 53.9989 93.9642C55.0336 93.9642 57.2324 94.3522 57.9438 94.8695C58.6551 95.3222 47.4027 95.1929 47.4027 95.1929Z" fill="white"/>
<path opacity="0.5" d="M165.622 43.0695H144.54C144.54 43.0695 143.958 42.4228 146.157 41.9054C148.356 41.4527 149.261 43.2635 151.33 38.866C152.236 36.9906 154.37 36.1499 156.31 36.5379C158.25 36.9259 159.155 40.5474 160.513 40.03C161.871 39.5127 161.095 36.7966 164.2 36.5379C167.239 36.3439 166.786 39.7714 167.821 40.7414C168.856 41.7114 169.244 39.3833 170.343 39.9007C171.443 40.418 171.184 41.8408 172.219 41.8408C173.253 41.8408 175.452 42.2288 176.163 42.7461C176.875 43.2635 165.622 43.0695 165.622 43.0695Z" fill="white"/>
<path d="M213.348 155.788C213.348 155.788 220.785 153.46 220.138 146.734C219.491 140.009 214.835 139.75 218.392 135.805C221.949 131.86 225.958 133.8 227.057 125.458C228.157 117.18 218.521 112.266 221.237 107.674C224.406 102.371 226.475 101.207 224.729 92.9942C221.302 77.1502 194.982 86.2686 194.982 86.2686L213.348 155.788Z" fill="#7ACFD0"/>
<path d="M32.5915 175.253C32.5915 175.253 54.2557 52.8348 124.81 60.1424C170.466 64.9279 175.64 133.736 192.13 128.821C226.146 118.797 248.845 109.097 265.465 175.189H32.5915V175.253Z" fill="#99D6F8"/>
<path d="M237.529 110.519C237.529 110.519 232.743 111.554 233.778 118.085C234.683 123.647 230.739 120.866 228.799 129.338C226.341 139.749 234.101 139.297 230.997 142.983C226.212 148.738 220.715 164 236.688 165.746C251.497 167.363 254.278 157.533 252.079 151.261C249.881 144.988 244.254 142.595 246.777 138.779C249.04 135.481 250.786 129.338 246.647 125.005C242.508 120.737 242.767 122.612 242.185 117.051C241.603 111.489 240.31 109.808 237.529 110.519Z" fill="#00519C"/>
<path d="M239.147 166.07C239.082 166.07 238.953 166.005 238.953 165.876L238.241 117.051C238.241 116.986 238.306 116.857 238.435 116.857C238.565 116.857 238.629 116.922 238.629 117.051L239.341 165.876C239.276 165.941 239.211 166.07 239.147 166.07Z" fill="#FFF8F0"/>
<path d="M238.629 133.024C238.499 133.024 238.241 133.024 234.167 126.622C234.102 126.557 234.167 126.427 234.231 126.363C234.296 126.298 234.425 126.363 234.49 126.427C235.848 128.562 238.111 131.989 238.629 132.636C239.857 130.954 241.927 125.716 241.992 125.651C242.056 125.587 242.121 125.522 242.186 125.587C242.25 125.651 242.315 125.716 242.25 125.781C242.186 126.039 239.987 131.407 238.758 132.959C238.758 133.024 238.693 133.024 238.629 133.024Z" fill="#FFF8F0"/>
<path d="M238.758 144.147H238.693C238.435 144.017 236.107 139.943 234.167 136.516C234.102 136.451 234.167 136.322 234.231 136.322C234.296 136.257 234.425 136.322 234.425 136.386C235.913 139.038 238.176 142.983 238.758 143.823C239.211 142.918 240.892 138.456 241.927 135.61C241.927 135.546 242.056 135.481 242.121 135.481C242.186 135.481 242.25 135.61 242.25 135.675C240.246 141.172 239.081 144.017 238.758 144.147C238.823 144.147 238.823 144.147 238.758 144.147Z" fill="#FFF8F0"/>
<path d="M239.013 156.564H238.949C238.69 156.434 236.362 152.36 234.422 148.933C234.357 148.868 234.422 148.739 234.487 148.739C234.551 148.674 234.681 148.739 234.681 148.803C236.168 151.455 238.431 155.399 239.013 156.24C239.466 155.335 241.147 150.873 242.182 148.027C242.182 147.963 242.311 147.898 242.376 147.898C242.441 147.898 242.506 148.027 242.506 148.092C240.436 153.589 239.337 156.434 239.013 156.564Z" fill="#FFF8F0"/>
<path d="M253.051 117.698C253.051 117.698 248.266 118.732 249.3 125.264C250.206 130.826 246.261 128.045 244.321 136.516C241.863 146.928 249.624 146.475 246.52 150.162C241.734 155.917 236.237 171.179 252.21 172.925C267.02 174.542 269.8 164.712 267.602 158.439C265.403 152.166 259.777 149.774 262.299 145.958C264.562 142.66 266.308 136.516 262.17 132.184C258.031 127.915 258.289 129.791 257.707 124.229C257.125 118.668 255.767 116.986 253.051 117.698Z" fill="#3B698C"/>
<path d="M254.605 173.248C254.541 173.248 254.411 173.183 254.411 173.054L253.7 124.229C253.7 124.164 253.765 124.035 253.894 124.035C253.959 124.035 254.088 124.099 254.088 124.229L254.799 173.054C254.799 173.119 254.735 173.183 254.605 173.248Z" fill="#FFF8F0"/>
<path d="M254.087 140.202C253.958 140.202 253.699 140.202 249.625 133.8C249.561 133.735 249.625 133.606 249.69 133.541C249.755 133.477 249.884 133.541 249.949 133.606C251.307 135.74 253.57 139.168 254.087 139.814C255.316 138.133 257.386 132.895 257.45 132.83C257.515 132.765 257.58 132.701 257.644 132.765C257.709 132.83 257.774 132.895 257.709 132.959C257.644 133.218 255.445 138.585 254.217 140.138C254.217 140.202 254.152 140.202 254.087 140.202Z" fill="#FFF8F0"/>
<path d="M254.28 151.326H254.216C253.957 151.196 251.629 147.122 249.689 143.695C249.624 143.63 249.689 143.501 249.754 143.501C249.818 143.436 249.948 143.501 249.948 143.565C251.435 146.217 253.698 150.162 254.28 151.002C254.733 150.097 256.414 145.635 257.449 142.789C257.449 142.725 257.579 142.66 257.643 142.66C257.708 142.66 257.773 142.789 257.773 142.854C255.703 148.351 254.604 151.196 254.28 151.326Z" fill="#FFF8F0"/>
<path d="M254.472 163.742H254.407C254.149 163.612 251.821 159.538 249.881 156.111C249.816 156.046 249.881 155.917 249.945 155.917C250.01 155.852 250.139 155.917 250.139 155.981C251.627 158.633 253.89 162.578 254.472 163.354C254.925 162.448 256.606 157.986 257.641 155.141C257.641 155.076 257.77 155.011 257.835 155.011C257.9 155.011 257.964 155.141 257.964 155.205C255.96 160.767 254.795 163.612 254.472 163.742Z" fill="#FFF8F0"/>
<path d="M106.257 182.043H81.6827C81.23 182.043 80.7773 181.655 80.7773 181.138C80.7773 180.685 81.1654 180.232 81.6827 180.232H106.257C106.71 180.232 107.162 180.621 107.162 181.138C107.162 181.655 106.774 182.043 106.257 182.043Z" fill="#CFDEE6"/>
<path d="M77.214 182.043H37.7659C37.3132 182.043 36.8605 181.655 36.8605 181.138C36.8605 180.685 37.2485 180.232 37.7659 180.232H77.214C77.6667 180.232 78.1194 180.621 78.1194 181.138C78.1194 181.655 77.6667 182.043 77.214 182.043Z" fill="#CFDEE6"/>
<path d="M136.198 182.043H111.623C111.171 182.043 110.718 181.655 110.718 181.138C110.718 180.685 111.106 180.232 111.623 180.232H136.198C136.65 180.232 137.103 180.621 137.103 181.138C137.103 181.655 136.715 182.043 136.198 182.043Z" fill="#CFDEE6"/>
<path d="M213.469 177.193H61.6905C61.2378 177.193 60.7852 176.805 60.7852 176.288C60.7852 175.835 61.1732 175.383 61.6905 175.383H213.469C213.922 175.383 214.374 175.771 214.374 176.288C214.374 176.805 213.986 177.193 213.469 177.193Z" fill="#CFDEE6"/>
<path d="M229.249 182.043H158.307C157.854 182.043 157.401 181.655 157.401 181.138C157.401 180.685 157.789 180.232 158.307 180.232H229.249C229.701 180.232 230.154 180.621 230.154 181.138C230.154 181.655 229.766 182.043 229.249 182.043Z" fill="#CFDEE6"/>
<path d="M67.3387 24.6539L49.0365 41.5344L49.6503 42.2L67.9525 25.3194L67.3387 24.6539Z" fill="#00519C"/>
<path d="M67.7622 24.5938L67.4298 25.4359L110.2 42.3151L110.533 41.4729L67.7622 24.5938Z" fill="#00519C"/>
<path d="M72.0398 108.644H63.1801V109.549H72.0398V108.644Z" fill="#00519C"/>
<path d="M71.7025 108.782L62.8444 118.383L63.5099 118.997L72.368 109.396L71.7025 108.782Z" fill="#00519C"/>
<path d="M63.5585 108.831L62.8929 109.445L71.7497 119.047L72.4153 118.433L63.5585 108.831Z" fill="#00519C"/>
<path d="M72.0414 99.0733H63.1818V99.9787H72.0414V99.0733Z" fill="#00519C"/>
<path d="M71.7318 99.2016L62.8737 108.803L63.5392 109.417L72.3973 99.8155L71.7318 99.2016Z" fill="#00519C"/>
<path d="M63.5409 99.2041L62.8754 99.8179L71.7322 109.421L72.3978 108.807L63.5409 99.2041Z" fill="#00519C"/>
<path d="M72.0463 89.4374H63.1867V90.3427H72.0463V89.4374Z" fill="#00519C"/>
<path d="M71.7548 89.6244L62.898 99.2271L63.5635 99.841L72.4203 90.2383L71.7548 89.6244Z" fill="#00519C"/>
<path d="M63.561 89.6247L62.8955 90.2385L71.7523 99.8413L72.4178 99.2274L63.561 89.6247Z" fill="#00519C"/>
<path d="M72.0397 79.8662H63.18V80.7715H72.0397V79.8662Z" fill="#00519C"/>
<path d="M71.7263 79.9995L62.8694 89.6022L63.535 90.216L72.3918 80.6133L71.7263 79.9995Z" fill="#00519C"/>
<path d="M63.5358 79.9979L62.8703 80.6118L71.7271 90.2145L72.3927 89.6007L63.5358 79.9979Z" fill="#00519C"/>
<path d="M72.0389 69.4546H63.1793V70.36H72.0389V69.4546Z" fill="#00519C"/>
<path d="M71.7046 69.593L62.8478 79.1957L63.5133 79.8096L72.3701 70.2069L71.7046 69.593Z" fill="#00519C"/>
<path d="M63.5619 69.6388L62.8963 70.2526L71.7532 79.8553L72.4187 79.2415L63.5619 69.6388Z" fill="#00519C"/>
<path d="M72.0481 59.883H63.1884V60.7884H72.0481V59.883Z" fill="#00519C"/>
<path d="M71.7431 60.0114L62.8863 69.6142L63.5518 70.228L72.4086 60.6253L71.7431 60.0114Z" fill="#00519C"/>
<path d="M63.5526 60.0107L62.8871 60.6245L71.7439 70.2272L72.4094 69.6134L63.5526 60.0107Z" fill="#00519C"/>
<path d="M72.0423 31.8174H63.1826V32.7228H72.0423V31.8174Z" fill="#00519C"/>
<path d="M71.7305 31.9479L62.8737 41.5506L63.5393 42.1644L72.3961 32.5617L71.7305 31.9479Z" fill="#00519C"/>
<path d="M63.54 31.9469L62.8745 32.5607L71.7313 42.1634L72.3969 41.5496L63.54 31.9469Z" fill="#00519C"/>
<path d="M72.0398 50.2472H63.1801V51.1525H72.0398V50.2472Z" fill="#195C6C"/>
<path d="M71.7029 50.3865L62.8461 59.9892L63.5116 60.603L72.3685 51.0003L71.7029 50.3865Z" fill="#00519C"/>
<path d="M63.5602 50.4317L62.8947 51.0455L71.7515 60.6482L72.417 60.0344L63.5602 50.4317Z" fill="#00519C"/>
<path d="M82.1366 41.8413H81.2312V50.701H82.1366V41.8413Z" fill="#00519C"/>
<path d="M72.3554 41.567L71.7415 42.2325L81.3442 51.0893L81.9581 50.4238L72.3554 41.567Z" fill="#00519C"/>
<path d="M81.3828 41.52L71.78 50.3769L72.3939 51.0424L81.9966 42.1856L81.3828 41.52Z" fill="#00519C"/>
<path d="M52.7778 41.8402H51.8724V50.6999H52.7778V41.8402Z" fill="#00519C"/>
<path d="M52.6177 41.5413L52.0038 42.2068L61.6065 51.0637L62.2204 50.3981L52.6177 41.5413Z" fill="#00519C"/>
<path d="M61.6065 41.5403L52.0038 50.3971L52.6177 51.0627L62.2204 42.2059L61.6065 41.5403Z" fill="#00519C"/>
<path d="M91.6957 41.8415H90.7903V50.7012H91.6957V41.8415Z" fill="#00519C"/>
<path d="M81.9144 41.5678L81.3006 42.2333L90.9033 51.0902L91.5172 50.4246L81.9144 41.5678Z" fill="#00519C"/>
<path d="M90.9509 41.5202L81.3482 50.377L81.962 51.0425L91.5648 42.1857L90.9509 41.5202Z" fill="#00519C"/>
<path d="M101.274 41.8398H100.369V50.6995H101.274V41.8398Z" fill="#00519C"/>
<path d="M91.5464 41.5418L90.9326 42.2074L100.535 51.0642L101.149 50.3986L91.5464 41.5418Z" fill="#00519C"/>
<path d="M100.534 41.5402L90.9318 50.397L91.5456 51.0626L101.148 42.2058L100.534 41.5402Z" fill="#00519C"/>
<path d="M110.851 41.8406H109.945V50.7002H110.851V41.8406Z" fill="#00519C"/>
<path d="M101.123 41.5403L100.509 42.2058L110.112 51.0626L110.726 50.3971L101.123 41.5403Z" fill="#00519C"/>
<path d="M110.112 41.5401L100.509 50.3969L101.123 51.0624L110.726 42.2056L110.112 41.5401Z" fill="#00519C"/>
<path d="M120.482 41.841H119.577V50.7007H120.482V41.841Z" fill="#00519C"/>
<path d="M110.7 41.5637L110.086 42.2293L119.689 51.0861L120.303 50.4206L110.7 41.5637Z" fill="#00519C"/>
<path d="M119.736 41.5208L110.135 50.3789L110.749 51.0444L120.35 42.1862L119.736 41.5208Z" fill="#00519C"/>
<path d="M130.06 41.841H129.154V50.7007H130.06V41.841Z" fill="#00519C"/>
<path d="M120.277 41.5626L119.663 42.2281L129.266 51.085L129.879 50.4194L120.277 41.5626Z" fill="#00519C"/>
<path d="M129.314 41.5209L119.712 50.379L120.326 51.0444L129.928 42.1863L129.314 41.5209Z" fill="#00519C"/>
<path d="M72.0454 119.185H63.1858C62.9271 119.185 62.7331 118.991 62.7331 118.732V31.8172C62.7331 31.7526 62.7331 31.6232 62.7978 31.5586L67.1953 24.7037C67.2599 24.5743 67.4539 24.5096 67.5833 24.5096C67.7126 24.5096 67.9066 24.5743 67.9713 24.7037L72.3688 31.5586C72.4335 31.6232 72.4335 31.7526 72.4335 31.8172V118.732C72.5628 118.991 72.3041 119.185 72.0454 119.185ZM63.7031 118.28H71.5928V32.0113L67.6479 25.8677L63.7031 32.0113V118.28Z" fill="#3B698C"/>
<path d="M140.85 51.218H53.4818C53.2231 51.218 53.0291 51.024 53.0291 50.7653V41.841C53.0291 41.5823 53.2231 41.3883 53.4818 41.3883H129.468C129.597 41.3883 129.662 41.453 129.727 41.5176L141.108 50.3773C141.238 50.5066 141.302 50.7007 141.238 50.8947C141.173 51.0887 141.044 51.218 140.85 51.218ZM53.9345 50.248H139.492L129.339 42.3583H53.9345V50.248Z" fill="#3B698C"/>
<path d="M74.2417 39.642H60.9845V52.8992H74.2417V39.642Z" fill="#00519C"/>
<path d="M53.4849 41.8408H49.3461V50.7005H53.4849V41.8408Z" fill="#00519C"/>
<path d="M53.9358 51.2177H48.8916V41.388H53.9358V51.2177ZM49.7969 50.2476H53.0304V42.358H49.7969V50.2476Z" fill="#00519C"/>
<path d="M76.0515 123.453H59.2375V133.865H76.0515V123.453Z" fill="#00519C"/>
<path d="M67.6445 119.056H62.859L59.2375 123.453H67.6445V119.056Z" fill="#00519C"/>
<path d="M67.5127 119.056H72.2982L75.9197 123.453H67.5127V119.056Z" fill="#3B698C"/>
<path d="M76.0515 125.846H59.2375V126.945H76.0515V125.846Z" fill="#3B698C"/>
<path d="M76.0515 129.403H59.2375V130.502H76.0515V129.403Z" fill="#3B698C"/>
<path d="M123.582 107.48C123.582 107.48 111.23 102.306 97.5849 112.459C85.2978 121.578 92.7994 137.163 79.1543 130.114C67.8372 124.294 52.9633 129.144 53.0279 141.043C53.0926 152.942 38.6714 142.789 32.5278 154.882H123.582V107.48Z" fill="#7ACFD0"/>
<path d="M171.564 50.3122C171.564 50.3122 162.381 46.1734 152.228 54.3217C143.109 61.6293 148.671 74.1104 138.518 68.4842C130.111 63.828 119.052 67.7082 119.052 77.2792C119.052 86.8502 108.382 78.7019 103.79 88.4023H171.499V50.3122H171.564Z" fill="#7ACFD0"/>
<path d="M54.4502 106.833C54.4502 106.833 49.6647 107.868 50.6994 114.399C51.6048 119.961 47.66 117.18 45.7199 125.652C43.2625 136.063 51.0228 135.611 47.9187 139.297C43.1332 145.052 37.6363 160.314 53.6096 162.06C68.4188 163.677 71.1995 153.847 69.0008 147.574C66.802 141.302 61.1758 138.909 63.6979 135.093C65.9614 131.795 67.7074 125.652 63.5686 121.319C59.4298 117.051 59.6884 118.926 59.1064 113.365C58.6537 107.738 57.1664 106.057 54.4502 106.833Z" fill="#3B698C"/>
<path d="M56.0681 162.319C56.0034 162.319 55.8741 162.255 55.8741 162.125L55.1627 113.3C55.1627 113.235 55.2274 113.106 55.3567 113.106C55.4214 113.106 55.5507 113.171 55.5507 113.3L56.2621 162.125C56.1974 162.255 56.1328 162.319 56.0681 162.319Z" fill="#FFF8F0"/>
<path d="M55.5501 129.338C55.4208 129.338 55.1621 129.338 51.0879 122.936C51.0233 122.871 51.0879 122.742 51.1526 122.677C51.2173 122.612 51.3466 122.677 51.4113 122.742C52.7693 124.876 55.0328 128.303 55.5501 128.95C56.7788 127.268 58.8482 122.03 58.9129 121.966C58.9776 121.901 59.0422 121.836 59.1069 121.901C59.1716 121.966 59.2362 122.03 59.1716 122.095C59.1069 122.354 56.9082 127.721 55.6794 129.273C55.6794 129.273 55.6148 129.338 55.5501 129.338Z" fill="#FFF8F0"/>
<path d="M55.6795 140.397H55.6148C55.3562 140.267 53.0281 136.193 51.088 132.766C51.0233 132.701 51.088 132.572 51.1527 132.572C51.2173 132.507 51.3467 132.572 51.3467 132.636C52.8341 135.288 55.0975 139.232 55.6795 140.009C56.1322 139.103 57.8136 134.641 58.8483 131.796C58.8483 131.731 58.9776 131.666 59.0423 131.666C59.107 131.666 59.1716 131.796 59.1716 131.86C57.1669 137.422 56.0029 140.332 55.6795 140.397C55.7442 140.397 55.7442 140.397 55.6795 140.397Z" fill="#FFF8F0"/>
<path d="M55.8711 152.878H55.8065C55.5478 152.748 53.2197 148.674 51.2796 145.247C51.215 145.182 51.2796 145.053 51.3443 145.053C51.409 144.988 51.5383 145.053 51.5383 145.117C53.0257 147.769 55.2891 151.714 55.8711 152.49C56.3238 151.584 58.0052 147.122 59.0399 144.277C59.0399 144.212 59.1693 144.147 59.2339 144.147C59.2986 144.147 59.3633 144.277 59.3633 144.341C57.3585 149.903 56.1945 152.748 55.8711 152.878C55.9358 152.878 55.9358 152.878 55.8711 152.878Z" fill="#FFF8F0"/>
<path d="M174.997 33.4335C174.997 33.4335 170.211 34.4682 171.246 40.9998C172.151 46.5613 168.207 43.7806 166.266 52.2522C163.809 62.6639 171.569 62.2113 168.465 65.8974C163.68 71.6529 158.183 86.9148 174.156 88.6609C188.965 90.2776 191.746 80.4479 189.547 74.175C187.349 67.9021 181.722 65.5094 184.244 61.6939C186.508 58.3958 188.254 52.2522 184.115 47.9194C179.976 43.6512 180.235 45.5266 179.653 39.9651C179.071 34.4036 177.713 32.7222 174.997 33.4335Z" fill="#FF7622"/>
<path d="M176.551 88.919C176.486 88.919 176.357 88.8543 176.357 88.725L175.646 39.8998C175.646 39.8352 175.71 39.7058 175.84 39.7058C175.969 39.7058 176.034 39.7705 176.034 39.8998L176.745 88.725C176.745 88.8543 176.68 88.919 176.551 88.919Z" fill="#FFF8F0"/>
<path d="M176.097 55.9382C175.967 55.9382 175.709 55.9382 171.635 49.536C171.57 49.4713 171.635 49.342 171.699 49.2773C171.764 49.2126 171.893 49.2773 171.958 49.342C173.316 51.4761 175.579 54.9035 176.097 55.5502C177.325 53.8688 179.395 48.6306 179.46 48.5659C179.524 48.5013 179.589 48.4366 179.654 48.5013C179.718 48.5659 179.783 48.6306 179.718 48.6953C179.654 48.954 177.455 54.3215 176.226 55.8736C176.161 55.8736 176.097 55.9382 176.097 55.9382Z" fill="#FFF8F0"/>
<path d="M176.226 67.0616H176.161C175.903 66.9323 173.575 62.8581 171.635 59.4307C171.57 59.366 171.635 59.2367 171.699 59.2367C171.764 59.172 171.893 59.2367 171.893 59.3013C173.381 61.9528 175.644 65.8976 176.226 66.6736C176.679 65.7682 178.36 61.3061 179.395 58.4606C179.395 58.396 179.524 58.3313 179.589 58.3313C179.654 58.3313 179.718 58.4606 179.718 58.5253C177.713 64.0868 176.549 66.9323 176.226 67.0616Z" fill="#FFF8F0"/>
<path d="M176.418 79.4782H176.353C176.094 79.3489 173.766 75.2747 171.826 71.8473C171.761 71.7826 171.826 71.6533 171.891 71.6533C171.955 71.5886 172.085 71.6533 172.085 71.7179C173.572 74.3694 175.836 78.3142 176.418 79.0902C176.87 78.1848 178.552 73.7227 179.586 70.8772C179.586 70.8126 179.716 70.7479 179.78 70.7479C179.845 70.7479 179.91 70.8772 179.91 70.9419C177.905 76.5034 176.741 79.3489 176.418 79.4782C176.482 79.4782 176.482 79.4782 176.418 79.4782Z" fill="#FFF8F0"/>
<path d="M38.9253 116.469C38.9253 116.469 34.1398 117.503 35.1745 124.035C36.0798 129.597 32.135 126.816 30.195 135.287C27.7375 145.699 35.4978 145.246 32.3937 148.933C27.6082 154.688 22.1113 169.95 38.0846 171.696C52.8938 173.313 55.6746 163.483 53.4758 157.21C51.2771 150.937 45.6509 148.545 48.173 144.729C50.4364 141.431 52.1825 135.287 48.0436 130.955C43.9048 126.686 44.1635 128.562 43.5815 123C43.1288 117.439 41.6414 115.757 38.9253 116.469Z" fill="#00519C"/>
<path d="M40.5431 171.955C40.4785 171.955 40.3491 171.89 40.3491 171.761L39.6378 122.936C39.6378 122.871 39.7024 122.742 39.8318 122.742C39.9611 122.742 40.0258 122.806 40.0258 122.936L40.7371 171.761C40.6725 171.89 40.6078 171.955 40.5431 171.955Z" fill="#FFF8F0"/>
<path d="M40.0252 138.973C39.8959 138.973 39.6372 138.973 35.563 132.571C35.4984 132.507 35.563 132.377 35.6277 132.313C35.6924 132.248 35.8217 132.313 35.8864 132.377C37.2444 134.511 39.5079 137.939 40.0252 138.585C41.2539 136.904 43.3233 131.666 43.388 131.601C43.4527 131.536 43.5173 131.472 43.582 131.536C43.6467 131.601 43.7113 131.666 43.6467 131.73C43.582 131.989 41.3833 137.357 40.1545 138.909C40.1545 138.909 40.0899 138.973 40.0252 138.973Z" fill="#FFF8F0"/>
<path d="M40.1545 150.032H40.0899C39.8312 149.903 37.5031 145.828 35.563 142.401C35.4984 142.336 35.563 142.207 35.6277 142.207C35.6924 142.142 35.8217 142.207 35.8217 142.272C37.3091 144.923 39.5725 148.868 40.1545 149.644C40.6072 148.739 42.2886 144.276 43.3233 141.431C43.3233 141.366 43.4527 141.302 43.5173 141.302C43.582 141.302 43.6467 141.431 43.6467 141.496C41.6419 147.057 40.4779 149.967 40.1545 150.032C40.2192 150.032 40.2192 150.032 40.1545 150.032Z" fill="#FFF8F0"/>
<path d="M40.4098 162.513H40.3451C40.0865 162.384 37.7584 158.31 35.8183 154.882C35.7536 154.818 35.8183 154.688 35.883 154.688C35.9476 154.624 36.077 154.688 36.077 154.753C37.5644 157.405 39.8278 161.349 40.4098 162.125C40.8625 161.22 42.5439 156.758 43.5786 153.912C43.5786 153.848 43.7079 153.783 43.7726 153.783C43.8373 153.783 43.9019 153.912 43.9019 153.977C41.8325 159.539 40.6685 162.384 40.4098 162.513Z" fill="#FFF8F0"/>
<path d="M193.878 43.8452C193.878 43.8452 189.093 44.8799 190.127 51.4115C191.033 56.973 187.088 54.1922 185.148 62.6639C182.69 73.0756 190.451 72.6229 187.347 76.3091C182.561 82.0646 177.064 97.3265 193.037 99.0726C207.847 100.689 210.627 90.8596 208.429 84.5867C206.23 78.3138 200.604 75.9211 203.126 72.1056C205.389 68.8075 207.135 62.6639 202.997 58.3311C198.858 54.0629 199.116 55.9383 198.534 50.3768C197.952 44.8152 196.594 43.0692 193.878 43.8452Z" fill="#00519C"/>
<path d="M195.432 99.3309C195.368 99.3309 195.238 99.2662 195.238 99.1369L194.527 50.3117C194.527 50.247 194.592 50.1177 194.721 50.1177C194.85 50.1177 194.915 50.1824 194.915 50.3117L195.626 99.1369C195.626 99.2662 195.497 99.3309 195.432 99.3309Z" fill="#FFF8F0"/>
<path d="M194.914 66.3496C194.785 66.3496 194.526 66.3496 190.452 59.9474C190.388 59.8827 190.452 59.7534 190.517 59.6887C190.582 59.624 190.711 59.6887 190.776 59.7534C192.134 61.8875 194.397 65.3149 194.914 65.9616C196.143 64.2802 198.213 59.042 198.277 58.9773C198.342 58.9127 198.407 58.848 198.471 58.9127C198.536 58.9774 198.601 59.042 198.536 59.1067C198.471 59.3654 196.272 64.7329 195.044 66.285C195.044 66.285 194.979 66.3496 194.914 66.3496Z" fill="#FFF8F0"/>
<path d="M195.107 77.4085H195.043C194.784 77.2792 192.456 73.205 190.516 69.7776C190.451 69.7129 190.516 69.5836 190.581 69.5836C190.645 69.5189 190.775 69.5836 190.775 69.6482C192.262 72.2997 194.525 76.2445 195.107 77.0205C195.56 76.1152 197.242 71.653 198.276 68.8075C198.276 68.7429 198.406 68.6782 198.47 68.6782C198.535 68.6782 198.6 68.8075 198.6 68.8722C196.53 74.4338 195.431 77.3439 195.107 77.4085Z" fill="#FFF8F0"/>
<path d="M195.299 89.889H195.234C194.976 89.7597 192.648 85.6855 190.708 82.2581C190.643 82.1934 190.708 82.0641 190.772 82.0641C190.837 81.9994 190.966 82.0641 190.966 82.1287C192.454 84.7802 194.717 88.725 195.299 89.501C195.752 88.5956 197.433 84.1335 198.468 81.288C198.468 81.2234 198.597 81.1587 198.662 81.1587C198.726 81.1587 198.791 81.288 198.791 81.3527C196.722 86.9142 195.622 89.7597 195.299 89.889Z" fill="#FFF8F0"/>
<path d="M107.739 55.0981C107.739 55.0981 102.953 56.1328 103.988 62.6644C104.893 68.2259 100.949 65.4452 99.0085 73.9168C96.551 84.3285 104.311 83.8758 101.207 87.562C96.4217 93.3175 90.9248 108.579 106.898 110.326C121.707 111.942 124.488 102.113 122.289 95.8396C120.091 89.5667 114.464 87.174 116.986 83.3585C119.25 80.0604 120.996 73.9168 116.857 69.584C112.718 65.3158 112.977 67.1912 112.395 61.6297C111.813 56.0681 110.455 54.3867 107.739 55.0981Z" fill="#FF7622"/>
<path d="M109.293 110.584C109.228 110.584 109.099 110.519 109.099 110.39L108.388 61.565C108.388 61.5003 108.452 61.371 108.582 61.371C108.711 61.371 108.776 61.4357 108.776 61.565L109.487 110.39C109.422 110.519 109.358 110.584 109.293 110.584Z" fill="#FFF8F0"/>
<path d="M108.775 77.603C108.646 77.603 108.387 77.603 104.313 71.2008C104.248 71.1361 104.313 71.0068 104.378 70.9421C104.442 70.8774 104.572 70.9421 104.636 71.0068C105.994 73.1409 108.258 76.5683 108.775 77.215C110.004 75.5336 112.073 70.2954 112.138 70.2308C112.202 70.1661 112.267 70.1014 112.332 70.1661C112.396 70.2308 112.461 70.2954 112.396 70.3601C112.332 70.6188 110.133 75.9863 108.904 77.5384C108.904 77.603 108.84 77.603 108.775 77.603Z" fill="#FFF8F0"/>
<path d="M108.968 88.7261H108.903C108.645 88.5968 106.317 84.5227 104.376 81.0952C104.312 81.0305 104.376 80.9012 104.441 80.9012C104.506 80.8365 104.635 80.9012 104.635 80.9659C106.123 83.6173 108.386 87.5621 108.968 88.3381C109.421 87.4328 111.102 82.9706 112.137 80.1252C112.137 80.0605 112.266 79.9958 112.331 79.9958C112.395 79.9958 112.46 80.1252 112.46 80.1898C110.391 85.7514 109.227 88.5968 108.968 88.7261Z" fill="#FFF8F0"/>
<path d="M109.16 101.143H109.095C108.836 101.013 106.508 96.9392 104.568 93.5118C104.503 93.4471 104.568 93.3178 104.633 93.3178C104.697 93.2531 104.827 93.3178 104.827 93.3824C106.314 96.0339 108.578 99.9787 109.16 100.755C109.612 99.8493 111.294 95.3872 112.328 92.5417C112.328 92.4771 112.458 92.4124 112.522 92.4124C112.587 92.4124 112.652 92.5417 112.652 92.6064C110.582 98.1679 109.483 101.013 109.16 101.143Z" fill="#FFF8F0"/>
<path d="M98.6241 124.811C98.6241 123.065 97.1367 121.642 95.326 121.836C90.8638 122.289 82.4568 124.035 73.9852 130.631C62.8621 139.297 69.9757 158.439 57.6239 151.778C47.4062 146.216 33.8903 150.873 33.955 162.125C34.0197 169.885 27.8114 167.751 22.1852 169.433C18.8871 170.403 19.5338 175.253 22.9613 175.253H94.938C96.5547 175.253 97.9127 173.96 97.9127 172.343L98.6241 124.811Z" fill="#64A8A9"/>
<path d="M196.21 132.377C196.21 131.019 197.18 129.791 198.538 129.467C202.419 128.562 210.826 127.915 219.815 134.9C230.938 143.565 224.147 158.374 236.499 151.713C246.717 146.152 260.233 150.808 260.168 162.061C260.103 169.756 266.182 167.751 271.809 169.303C275.171 170.209 274.525 175.188 271.033 175.188H199.185C197.504 175.188 196.21 173.83 196.21 172.214V132.377Z" fill="#64A8A9"/>
<path d="M200.607 170.985H90.0873C84.6551 170.985 80.2576 166.523 80.2576 161.155V86.915C80.2576 81.4828 84.7197 77.0853 90.0873 77.0853H200.607C206.039 77.0853 210.436 81.5475 210.436 86.915V161.155C210.501 166.587 206.039 170.985 200.607 170.985Z" fill="white"/>
<path d="M204.678 84.846H86.075V154.559H204.678V84.846Z" fill="#3B698C"/>
<path d="M204.678 154.559H86.075L204.678 84.846V154.559Z" fill="#00519C"/>
<path d="M212.248 175.447H78.4476C71.8513 175.447 66.4838 170.079 66.4838 163.483V162.319H224.147V163.483C224.212 170.144 218.844 175.447 212.248 175.447Z" fill="#F4F8FA"/>
<path d="M124.292 158.698C124.292 164.324 128.818 168.851 134.445 168.851H156.303C161.929 168.851 166.456 164.324 166.456 158.698H124.292Z" fill="white"/>
<path d="M224.726 158.633H66.0285V162.384H224.726V158.633Z" fill="#CFDEE6"/>
<path d="M109.132 122.015V118.856L123.068 96.8065H125.36V101.699H123.811L113.282 118.36V118.608H132.049V122.015H109.132ZM124.059 128.518V121.055V119.584V96.8065H127.713V128.518H124.059ZM148.195 128.952C145.862 128.952 143.875 128.317 142.233 127.047C140.592 125.767 139.338 123.914 138.471 121.488C137.604 119.052 137.17 116.11 137.17 112.662C137.17 109.235 137.604 106.309 138.471 103.883C139.348 101.447 140.608 99.5885 142.249 98.3085C143.901 97.0181 145.883 96.373 148.195 96.373C150.507 96.373 152.484 97.0181 154.125 98.3085C155.777 99.5885 157.036 101.447 157.903 103.883C158.781 106.309 159.22 109.235 159.22 112.662C159.22 116.11 158.786 119.052 157.919 121.488C157.052 123.914 155.798 125.767 154.156 127.047C152.515 128.317 150.528 128.952 148.195 128.952ZM148.195 125.545C150.507 125.545 152.303 124.43 153.583 122.2C154.863 119.971 155.503 116.791 155.503 112.662C155.503 109.916 155.209 107.578 154.621 105.648C154.043 103.718 153.207 102.247 152.112 101.235C151.028 100.223 149.723 99.7175 148.195 99.7175C145.903 99.7175 144.112 100.848 142.822 103.109C141.532 105.359 140.886 108.543 140.886 112.662C140.886 115.408 141.175 117.741 141.753 119.661C142.332 121.581 143.163 123.042 144.246 124.043C145.341 125.044 146.657 125.545 148.195 125.545ZM164.36 122.015V118.856L178.296 96.8065H180.588V101.699H179.039L168.51 118.36V118.608H187.277V122.015H164.36ZM179.287 128.518V121.055V119.584V96.8065H182.941V128.518H179.287Z" fill="white"/>
<path d="M111.968 141.807V134.744H112.731V135.56H112.825C112.883 135.471 112.963 135.357 113.065 135.219C113.17 135.078 113.32 134.953 113.514 134.844C113.71 134.733 113.975 134.677 114.31 134.677C114.742 134.677 115.123 134.785 115.453 135.001C115.783 135.218 116.041 135.524 116.226 135.921C116.411 136.318 116.504 136.786 116.504 137.326C116.504 137.87 116.411 138.341 116.226 138.741C116.041 139.137 115.785 139.445 115.457 139.664C115.129 139.88 114.751 139.988 114.323 139.988C113.993 139.988 113.729 139.933 113.53 139.824C113.332 139.713 113.179 139.587 113.072 139.446C112.965 139.303 112.883 139.185 112.825 139.092H112.758V141.807H111.968ZM112.744 137.312C112.744 137.7 112.801 138.043 112.915 138.339C113.029 138.633 113.195 138.864 113.413 139.031C113.632 139.196 113.899 139.279 114.216 139.279C114.546 139.279 114.821 139.192 115.042 139.018C115.265 138.842 115.432 138.606 115.544 138.309C115.657 138.01 115.714 137.678 115.714 137.312C115.714 136.951 115.659 136.626 115.547 136.336C115.438 136.044 115.272 135.813 115.049 135.643C114.828 135.472 114.55 135.386 114.216 135.386C113.895 135.386 113.625 135.467 113.407 135.63C113.188 135.791 113.023 136.016 112.912 136.306C112.8 136.593 112.744 136.929 112.744 137.312ZM119.219 140.001C118.894 140.001 118.598 139.94 118.333 139.817C118.068 139.693 117.857 139.513 117.701 139.279C117.545 139.043 117.467 138.757 117.467 138.423C117.467 138.128 117.525 137.89 117.641 137.707C117.757 137.522 117.912 137.377 118.106 137.272C118.3 137.167 118.514 137.089 118.748 137.038C118.984 136.985 119.222 136.942 119.46 136.911C119.772 136.871 120.025 136.841 120.219 136.821C120.416 136.798 120.558 136.762 120.647 136.71C120.739 136.659 120.785 136.57 120.785 136.443V136.416C120.785 136.086 120.694 135.83 120.514 135.647C120.335 135.464 120.064 135.373 119.701 135.373C119.324 135.373 119.029 135.455 118.815 135.62C118.601 135.785 118.45 135.961 118.363 136.149L117.614 135.881C117.748 135.569 117.926 135.326 118.149 135.152C118.374 134.976 118.62 134.853 118.885 134.784C119.152 134.713 119.416 134.677 119.674 134.677C119.839 134.677 120.029 134.697 120.243 134.737C120.459 134.775 120.668 134.854 120.868 134.975C121.071 135.095 121.239 135.277 121.373 135.52C121.507 135.763 121.574 136.088 121.574 136.496V139.881H120.785V139.185H120.744C120.691 139.297 120.602 139.416 120.477 139.543C120.352 139.67 120.186 139.778 119.979 139.868C119.771 139.957 119.518 140.001 119.219 140.001ZM119.34 139.292C119.652 139.292 119.915 139.231 120.129 139.108C120.345 138.986 120.508 138.827 120.617 138.633C120.729 138.439 120.785 138.235 120.785 138.021V137.299C120.751 137.339 120.678 137.376 120.564 137.409C120.452 137.441 120.323 137.468 120.176 137.493C120.031 137.515 119.889 137.535 119.751 137.553C119.615 137.569 119.505 137.582 119.42 137.593C119.215 137.62 119.023 137.664 118.845 137.724C118.669 137.782 118.526 137.87 118.417 137.988C118.31 138.104 118.256 138.262 118.256 138.463C118.256 138.737 118.358 138.945 118.561 139.085C118.766 139.223 119.025 139.292 119.34 139.292ZM125.088 141.914C124.707 141.914 124.379 141.865 124.105 141.767C123.831 141.671 123.602 141.544 123.419 141.386C123.239 141.23 123.095 141.063 122.988 140.884L123.617 140.443C123.688 140.537 123.778 140.644 123.887 140.764C123.997 140.887 124.146 140.992 124.336 141.082C124.527 141.173 124.778 141.219 125.088 141.219C125.503 141.219 125.845 141.118 126.115 140.918C126.385 140.717 126.52 140.403 126.52 139.975V138.931H126.453C126.395 139.025 126.312 139.141 126.205 139.279C126.1 139.415 125.949 139.536 125.75 139.644C125.554 139.748 125.289 139.801 124.954 139.801C124.54 139.801 124.167 139.703 123.837 139.506C123.51 139.31 123.25 139.025 123.058 138.65C122.869 138.276 122.774 137.821 122.774 137.286C122.774 136.759 122.866 136.301 123.051 135.911C123.236 135.519 123.494 135.215 123.824 135.001C124.154 134.785 124.535 134.677 124.968 134.677C125.302 134.677 125.568 134.733 125.764 134.844C125.962 134.953 126.114 135.078 126.219 135.219C126.326 135.357 126.408 135.471 126.466 135.56H126.546V134.744H127.309V140.028C127.309 140.47 127.209 140.829 127.008 141.105C126.809 141.384 126.542 141.588 126.205 141.717C125.871 141.849 125.498 141.914 125.088 141.914ZM125.061 139.092C125.378 139.092 125.646 139.019 125.864 138.874C126.083 138.729 126.249 138.521 126.362 138.249C126.476 137.977 126.533 137.651 126.533 137.272C126.533 136.902 126.477 136.575 126.366 136.292C126.254 136.009 126.089 135.787 125.871 135.627C125.652 135.466 125.382 135.386 125.061 135.386C124.727 135.386 124.448 135.471 124.225 135.64C124.005 135.81 123.838 136.037 123.727 136.322C123.618 136.608 123.563 136.924 123.563 137.272C123.563 137.629 123.619 137.945 123.73 138.219C123.844 138.491 124.011 138.705 124.232 138.861C124.455 139.015 124.731 139.092 125.061 139.092ZM130.908 139.988C130.413 139.988 129.986 139.879 129.627 139.66C129.27 139.44 128.995 139.132 128.801 138.737C128.609 138.34 128.513 137.879 128.513 137.353C128.513 136.826 128.609 136.363 128.801 135.961C128.995 135.558 129.264 135.243 129.61 135.018C129.958 134.791 130.364 134.677 130.827 134.677C131.095 134.677 131.359 134.722 131.62 134.811C131.881 134.9 132.118 135.045 132.332 135.245C132.546 135.444 132.717 135.707 132.844 136.035C132.971 136.363 133.035 136.766 133.035 137.246V137.58H129.075V136.898H132.232C132.232 136.608 132.174 136.349 132.058 136.122C131.944 135.894 131.782 135.715 131.57 135.583C131.36 135.452 131.113 135.386 130.827 135.386C130.513 135.386 130.241 135.464 130.011 135.62C129.784 135.774 129.609 135.975 129.486 136.222C129.364 136.47 129.302 136.735 129.302 137.018V137.473C129.302 137.861 129.369 138.19 129.503 138.46C129.639 138.727 129.827 138.931 130.068 139.072C130.309 139.21 130.589 139.279 130.908 139.279C131.115 139.279 131.302 139.25 131.469 139.192C131.639 139.132 131.785 139.043 131.908 138.924C132.03 138.804 132.125 138.655 132.192 138.476L132.954 138.69C132.874 138.949 132.739 139.176 132.55 139.373C132.36 139.567 132.126 139.718 131.847 139.827C131.569 139.934 131.255 139.988 130.908 139.988ZM137.674 136.791V139.881H136.884V134.744H137.647V135.546H137.714C137.834 135.286 138.017 135.076 138.262 134.918C138.507 134.757 138.824 134.677 139.212 134.677C139.56 134.677 139.864 134.748 140.125 134.891C140.386 135.031 140.589 135.245 140.734 135.533C140.879 135.819 140.951 136.18 140.951 136.617V139.881H140.162V136.67C140.162 136.267 140.057 135.952 139.848 135.727C139.638 135.5 139.35 135.386 138.985 135.386C138.733 135.386 138.507 135.441 138.309 135.55C138.113 135.659 137.958 135.819 137.844 136.028C137.73 136.238 137.674 136.492 137.674 136.791ZM144.48 139.988C144.017 139.988 143.61 139.878 143.26 139.657C142.912 139.436 142.64 139.127 142.444 138.73C142.25 138.334 142.153 137.87 142.153 137.339C142.153 136.804 142.25 136.337 142.444 135.938C142.64 135.539 142.912 135.229 143.26 135.008C143.61 134.787 144.017 134.677 144.48 134.677C144.944 134.677 145.35 134.787 145.698 135.008C146.048 135.229 146.32 135.539 146.514 135.938C146.71 136.337 146.808 136.804 146.808 137.339C146.808 137.87 146.71 138.334 146.514 138.73C146.32 139.127 146.048 139.436 145.698 139.657C145.35 139.878 144.944 139.988 144.48 139.988ZM144.48 139.279C144.833 139.279 145.123 139.189 145.35 139.008C145.577 138.827 145.746 138.59 145.855 138.296C145.964 138.001 146.019 137.683 146.019 137.339C146.019 136.996 145.964 136.676 145.855 136.379C145.746 136.083 145.577 135.843 145.35 135.66C145.123 135.477 144.833 135.386 144.48 135.386C144.128 135.386 143.838 135.477 143.611 135.66C143.383 135.843 143.215 136.083 143.106 136.379C142.997 136.676 142.942 136.996 142.942 137.339C142.942 137.683 142.997 138.001 143.106 138.296C143.215 138.59 143.383 138.827 143.611 139.008C143.838 139.189 144.128 139.279 144.48 139.279ZM150.247 134.744V135.413H147.585V134.744H150.247ZM148.361 133.513H149.15V138.409C149.15 138.632 149.183 138.8 149.247 138.911C149.314 139.02 149.399 139.094 149.501 139.132C149.606 139.167 149.717 139.185 149.833 139.185C149.92 139.185 149.991 139.181 150.047 139.172C150.102 139.161 150.147 139.152 150.18 139.145L150.341 139.854C150.287 139.874 150.213 139.894 150.117 139.914C150.021 139.937 149.899 139.948 149.752 139.948C149.529 139.948 149.311 139.9 149.097 139.804C148.885 139.708 148.709 139.562 148.568 139.366C148.43 139.17 148.361 138.922 148.361 138.623V133.513ZM156.371 134.744V135.413H153.602V134.744H156.371ZM154.431 139.881V134.035C154.431 133.74 154.5 133.495 154.639 133.299C154.777 133.103 154.956 132.956 155.177 132.858C155.398 132.759 155.631 132.71 155.876 132.71C156.07 132.71 156.228 132.726 156.351 132.757C156.474 132.788 156.565 132.817 156.625 132.844L156.398 133.526C156.358 133.513 156.302 133.496 156.231 133.476C156.161 133.456 156.07 133.446 155.956 133.446C155.695 133.446 155.507 133.512 155.391 133.643C155.277 133.775 155.221 133.968 155.221 134.222V139.881H154.431ZM159.353 139.988C158.889 139.988 158.482 139.878 158.132 139.657C157.784 139.436 157.512 139.127 157.316 138.73C157.122 138.334 157.025 137.87 157.025 137.339C157.025 136.804 157.122 136.337 157.316 135.938C157.512 135.539 157.784 135.229 158.132 135.008C158.482 134.787 158.889 134.677 159.353 134.677C159.816 134.677 160.222 134.787 160.57 135.008C160.92 135.229 161.192 135.539 161.386 135.938C161.582 136.337 161.68 136.804 161.68 137.339C161.68 137.87 161.582 138.334 161.386 138.73C161.192 139.127 160.92 139.436 160.57 139.657C160.222 139.878 159.816 139.988 159.353 139.988ZM159.353 139.279C159.705 139.279 159.995 139.189 160.222 139.008C160.45 138.827 160.618 138.59 160.727 138.296C160.837 138.001 160.891 137.683 160.891 137.339C160.891 136.996 160.837 136.676 160.727 136.379C160.618 136.083 160.45 135.843 160.222 135.66C159.995 135.477 159.705 135.386 159.353 135.386C159 135.386 158.711 135.477 158.483 135.66C158.256 135.843 158.087 136.083 157.978 136.379C157.869 136.676 157.814 136.996 157.814 137.339C157.814 137.683 157.869 138.001 157.978 138.296C158.087 138.59 158.256 138.827 158.483 139.008C158.711 139.189 159 139.279 159.353 139.279ZM166.123 137.781V134.744H166.912V139.881H166.123V139.011H166.069C165.949 139.272 165.762 139.494 165.507 139.677C165.253 139.858 164.932 139.948 164.544 139.948C164.223 139.948 163.938 139.878 163.688 139.737C163.438 139.594 163.242 139.38 163.099 139.095C162.957 138.807 162.885 138.445 162.885 138.008V134.744H163.675V137.955C163.675 138.329 163.779 138.628 163.989 138.851C164.201 139.074 164.471 139.185 164.798 139.185C164.995 139.185 165.194 139.135 165.397 139.035C165.602 138.934 165.774 138.781 165.912 138.573C166.053 138.366 166.123 138.102 166.123 137.781ZM169.147 136.791V139.881H168.358V134.744H169.12V135.546H169.187C169.308 135.286 169.49 135.076 169.736 134.918C169.981 134.757 170.298 134.677 170.686 134.677C171.033 134.677 171.338 134.748 171.599 134.891C171.86 135.031 172.062 135.245 172.207 135.533C172.352 135.819 172.425 136.18 172.425 136.617V139.881H171.635V136.67C171.635 136.267 171.531 135.952 171.321 135.727C171.111 135.5 170.824 135.386 170.458 135.386C170.206 135.386 169.981 135.441 169.783 135.55C169.586 135.659 169.431 135.819 169.318 136.028C169.204 136.238 169.147 136.492 169.147 136.791ZM175.807 139.988C175.379 139.988 175.001 139.88 174.673 139.664C174.345 139.445 174.089 139.137 173.904 138.741C173.719 138.341 173.626 137.87 173.626 137.326C173.626 136.786 173.719 136.318 173.904 135.921C174.089 135.524 174.346 135.218 174.676 135.001C175.006 134.785 175.388 134.677 175.82 134.677C176.155 134.677 176.419 134.733 176.613 134.844C176.809 134.953 176.959 135.078 177.061 135.219C177.166 135.357 177.247 135.471 177.305 135.56H177.372V133.031H178.161V139.881H177.399V139.092H177.305C177.247 139.185 177.165 139.303 177.058 139.446C176.951 139.587 176.798 139.713 176.6 139.824C176.401 139.933 176.137 139.988 175.807 139.988ZM175.914 139.279C176.231 139.279 176.498 139.196 176.717 139.031C176.935 138.864 177.101 138.633 177.215 138.339C177.329 138.043 177.385 137.7 177.385 137.312C177.385 136.929 177.33 136.593 177.218 136.306C177.107 136.016 176.942 135.791 176.723 135.63C176.505 135.467 176.235 135.386 175.914 135.386C175.579 135.386 175.301 135.472 175.078 135.643C174.857 135.813 174.691 136.044 174.579 136.336C174.47 136.626 174.416 136.951 174.416 137.312C174.416 137.678 174.471 138.01 174.583 138.309C174.696 138.606 174.864 138.842 175.084 139.018C175.307 139.192 175.584 139.279 175.914 139.279Z" fill="white"/>
<path d="M206.231 107.609C206.231 107.609 205.714 116.663 206.684 117.31C207.654 118.021 210.306 117.051 210.694 120.543C211.082 124.035 211.922 141.561 211.922 141.561L196.272 141.043C196.272 141.043 196.402 119.444 196.66 118.409C196.919 117.374 202.545 117.568 202.545 116.857C202.545 116.146 202.481 109.485 202.481 109.485L206.231 107.609Z" fill="#F1CAA2"/>
<path d="M202.482 114.011C202.482 114.011 202.74 114.529 204.163 114.076C205.263 113.688 206.103 112.395 206.103 112.395L206.168 109.161L205.327 109.873C205.327 109.873 203.969 112.912 202.417 113.171L202.482 114.011Z" fill="#E39679"/>
<path d="M206.492 108.708C206.492 108.708 207.979 107.674 208.044 108.644C208.108 109.549 206.298 110.519 205.974 109.937C205.586 109.355 206.492 108.708 206.492 108.708Z" fill="#F1CAA2"/>
<path d="M206.17 109.614C206.105 109.614 206.105 109.549 206.105 109.549C206.558 108.579 207.334 108.838 207.334 108.838L207.399 108.902L207.334 108.967C207.334 108.902 206.687 108.708 206.17 109.614C206.235 109.614 206.235 109.614 206.17 109.614Z" fill="#423F63"/>
<path d="M206.559 109.484C206.494 109.42 206.494 109.355 206.559 109.355C206.753 109.29 206.947 109.161 206.947 109.032C207.012 108.902 206.947 108.838 206.947 108.838V108.773H207.012C207.012 108.773 207.076 108.902 207.012 109.032C207.012 109.226 206.818 109.355 206.559 109.484Z" fill="#423F63"/>
<path d="M194.399 179.974C194.399 179.974 196.145 154.559 196.533 143.177H210.114C210.114 143.177 209.467 166.329 209.338 180.362C209.338 180.362 213.541 181.073 211.601 181.397C209.596 181.72 207.397 181.461 207.397 181.461C207.397 181.461 203.776 151.52 203.129 148.351L196.727 181.461C195.175 181.332 190.454 181.914 191.489 181.332C192.394 180.621 194.399 179.974 194.399 179.974Z" fill="#F1CAA2"/>
<path d="M195.885 144.729C195.885 144.729 195.238 149.58 194.397 158.181L201.64 158.957L202.804 150.097L204.098 158.827L211.082 158.504C211.082 158.504 211.405 146.281 210.759 144.665C210.759 144.729 198.342 143.371 195.885 144.729Z" fill="#7ACFD0"/>
<path d="M195.242 149.709C195.177 149.644 195.177 149.58 195.242 149.58C195.242 149.58 197.893 149.062 198.799 144.729L198.863 144.665L198.928 144.729C198.475 146.993 197.505 148.221 196.729 148.868C195.953 149.58 195.307 149.709 195.242 149.709C195.307 149.709 195.307 149.709 195.242 149.709Z" fill="#FFFAF0"/>
<path d="M217.485 123.388C217.485 123.388 219.555 128.239 221.236 128.821C226.022 130.502 225.116 123.388 228.026 121.125C230.936 118.862 227.962 124.358 227.638 125.458C226.474 130.114 223.693 136.904 216.192 130.955C212.182 127.786 213.54 127.915 213.54 127.915L217.485 123.388Z" fill="#F1CAA2"/>
<path d="M201.833 103.923C201.833 103.923 197.113 112.007 201.639 112.783C204.485 113.3 207.33 107.868 207.072 106.122C206.878 104.441 202.221 102.307 201.833 103.923Z" fill="#F1CAA2"/>
<path d="M206.755 117.31C206.755 117.31 206.949 120.543 205.138 120.543C203.328 120.543 202.099 117.116 202.099 117.116C202.099 117.116 196.731 117.439 196.667 118.409C196.602 119.379 195.891 144.73 195.891 144.73H212.575C212.575 144.73 212.446 120.673 211.476 119.379C210.441 118.151 212.899 118.021 206.755 117.31Z" fill="white"/>
<path d="M203.196 107.997C203.339 107.997 203.454 107.882 203.454 107.739C203.454 107.596 203.339 107.48 203.196 107.48C203.053 107.48 202.937 107.596 202.937 107.739C202.937 107.882 203.053 107.997 203.196 107.997Z" fill="#00519C"/>
<path d="M203.582 109.808C203.867 109.808 204.099 109.577 204.099 109.291C204.099 109.005 203.867 108.774 203.582 108.774C203.296 108.774 203.064 109.005 203.064 109.291C203.064 109.577 203.296 109.808 203.582 109.808Z" fill="#E39679"/>
<path d="M203.387 106.963C203.323 107.221 203.646 107.027 203.969 107.157C204.293 107.286 204.422 107.609 204.551 107.351C204.681 107.092 204.422 106.833 204.163 106.704C203.84 106.639 203.517 106.704 203.387 106.963Z" fill="#3B698C"/>
<path d="M200.864 106.122C200.8 106.381 201.123 106.187 201.446 106.316C201.77 106.445 201.899 106.769 202.028 106.51C202.158 106.251 201.899 105.993 201.64 105.863C201.252 105.734 200.929 105.863 200.864 106.122Z" fill="#3B698C"/>
<path d="M200.541 109.032C200.826 109.032 201.058 108.8 201.058 108.515C201.058 108.229 200.826 107.997 200.541 107.997C200.255 107.997 200.023 108.229 200.023 108.515C200.023 108.8 200.255 109.032 200.541 109.032Z" fill="#E39679"/>
<path d="M201.32 108.838C201.19 108.709 201.514 108.062 201.837 107.545C201.837 107.545 201.902 107.48 201.902 107.545C201.902 107.545 201.966 107.609 201.902 107.609C201.643 108.062 201.449 108.515 201.384 108.709C201.514 108.644 201.772 108.385 201.966 108.191H202.031V108.256C201.578 108.773 201.384 108.838 201.32 108.838Z" fill="#423F63"/>
<path d="M201.062 107.351C201.205 107.351 201.321 107.235 201.321 107.092C201.321 106.949 201.205 106.834 201.062 106.834C200.919 106.834 200.803 106.949 200.803 107.092C200.803 107.235 200.919 107.351 201.062 107.351Z" fill="#00519C"/>
<path d="M199.504 110.196C199.504 110.196 199.634 108.515 199.892 108.58C200.151 108.644 199.698 110.002 200.216 109.55C200.733 109.097 201.768 108.192 202.22 109.55C202.35 109.873 202.479 110.908 204.096 110.326C205.712 109.679 205.648 108.321 205.777 107.674C205.906 107.027 205.518 106.575 206.424 105.605C207.135 104.764 201.444 106.316 201.768 103.729C201.897 102.824 204.031 100.561 206.424 101.854C209.334 103.406 209.593 105.669 209.011 105.411C208.623 105.281 208.429 104.893 207.976 104.893C207.523 104.893 208.558 107.609 207.2 108.45C205.324 109.614 205.001 113.365 201.768 113.3C199.569 113.171 199.504 110.52 199.504 110.196Z" fill="#3B698C"/>
<path d="M201.193 110.39H201.128C200.934 110.325 200.869 110.002 200.869 109.485C200.869 109.485 200.869 109.42 200.934 109.42C200.934 109.42 200.999 109.42 200.999 109.485C200.999 110.131 201.128 110.261 201.193 110.325C201.387 110.39 201.71 110.002 201.904 109.679H201.969C201.969 109.679 202.033 109.743 201.969 109.743C201.904 109.743 201.516 110.39 201.193 110.39Z" fill="#FFFAF0"/>
<path d="M209.918 117.956C209.918 117.956 215.35 118.926 217.42 125.781L215.35 129.92C215.35 129.92 212.311 127.463 210.823 125.329C209.336 123.195 209.918 117.956 209.918 117.956Z" fill="#FF7622"/>
<path d="M200.806 117.115C200.806 117.115 200.418 144.923 200.095 145.505C199.707 146.087 195.244 145.893 195.244 145.893C195.244 145.893 196.15 119.831 196.732 118.409C197.249 116.986 200.806 117.115 200.806 117.115Z" fill="#FF7622"/>
<path d="M208.565 117.504C208.565 117.504 208.759 145.053 208.242 145.894C207.725 146.734 211.993 146.411 212.834 145.894C212.834 145.894 212.187 118.733 211.928 118.668C211.734 118.603 210.311 117.116 208.565 117.504Z" fill="#FF7622"/>
<path d="M237.53 105.669L231.646 115.305L223.756 110.455L229.641 100.819C226.407 100.69 223.174 102.307 221.363 105.281C219.552 108.256 219.552 111.813 221.169 114.658L212.439 128.95L199.44 150.097C196.207 149.968 192.973 151.584 191.163 154.559C189.352 157.534 189.352 161.091 190.969 163.936L196.854 154.3L204.743 159.151L198.858 168.786C202.092 168.916 205.325 167.299 207.136 164.324C208.947 161.349 208.947 157.793 207.33 154.947L217.806 137.874L229.123 119.444C232.357 119.573 235.59 117.956 237.401 114.982C239.082 112.072 239.082 108.515 237.53 105.669Z" fill="#365982"/>
<path d="M212.311 128.95L199.312 150.097C196.079 149.968 192.845 151.584 191.035 154.559C189.224 157.534 189.224 161.091 190.841 163.936L196.725 154.3L204.615 159.151L198.73 168.786C201.964 168.916 205.197 167.299 207.008 164.324C208.819 161.349 208.819 157.793 207.202 154.947L217.678 137.875C214.315 136.128 212.893 131.86 212.311 128.95Z" fill="#00519C"/>
<path d="M198.864 155.852H198.8C198.735 155.788 198.67 155.723 198.735 155.594L226.284 112.007C226.349 111.942 226.413 111.878 226.543 111.942C226.607 112.007 226.672 112.072 226.607 112.201L199.058 155.788C198.994 155.852 198.929 155.852 198.864 155.852Z" fill="#FFF8F0"/>
<path d="M201.322 157.34H201.257C201.193 157.275 201.128 157.211 201.193 157.081L228.224 113.171C228.289 113.106 228.354 113.042 228.483 113.106C228.548 113.171 228.612 113.236 228.548 113.365L201.516 157.275C201.451 157.34 201.387 157.34 201.322 157.34Z" fill="#FFF8F0"/>
<path d="M196.857 125.911C196.857 125.911 192.847 128.95 193.753 131.86C194.917 135.611 202.224 135.158 206.234 136.581C209.855 137.874 210.179 140.332 210.114 140.59C209.985 140.914 207.592 138.974 205.717 138.198C204.423 137.616 192.136 138.456 189.226 133.865C186.833 130.049 192.459 123.065 194.4 120.543C194.4 120.543 195.822 124.423 196.857 125.911Z" fill="#F1CAA2"/>
<path d="M199.512 125.199L194.597 129.144C194.597 129.144 190.588 126.169 189.683 124.941C188.842 123.777 196.02 117.116 197.96 117.439C199.383 117.698 199.512 125.199 199.512 125.199Z" fill="#FF7622"/>
<path d="M194.462 178.81H197.114C197.114 178.81 196.597 181.073 196.597 181.332C196.597 181.591 191.294 181.526 190.906 181.332C190 180.944 194.333 179.974 194.333 179.974L194.462 178.81Z" fill="#00519C"/>
<path d="M209.335 178.81H207.007C207.007 178.81 207.201 181.073 207.136 181.332C207.136 181.591 212.439 181.526 212.827 181.332C213.732 180.944 209.399 179.974 209.399 179.974L209.335 178.81Z" fill="#00519C"/>
<path d="M210.046 140.655C209.335 139.426 207.007 137.809 207.007 137.809V137.745H207.071C207.136 137.809 209.464 139.362 210.111 140.59C210.111 140.655 210.111 140.655 210.046 140.655Z" fill="#423F63"/>
<path d="M206.752 138.198C206.687 138.198 206.687 138.133 206.687 138.133C206.881 137.875 207.334 137.357 207.398 137.163C207.398 137.163 207.463 137.099 207.463 137.163C207.463 137.163 207.528 137.228 207.463 137.228C207.398 137.422 206.816 138.133 206.752 138.198Z" fill="#423F63"/>
<path d="M209.916 139.879C209.14 138.392 207.265 137.422 207.265 137.422C207.265 137.422 207.2 137.357 207.265 137.357C207.265 137.357 207.329 137.293 207.329 137.357C207.329 137.357 209.205 138.327 209.981 139.815C209.981 139.879 209.981 139.879 209.916 139.879C209.981 139.879 209.981 139.879 209.916 139.879Z" fill="#423F63"/>
<path d="M227.507 124.229C227.443 124.229 227.443 124.164 227.443 124.164C227.443 124.164 229.253 121.642 229.253 120.802C229.253 120.802 229.253 120.737 229.318 120.737C229.318 120.737 229.383 120.737 229.383 120.802C229.383 121.642 227.637 124.1 227.507 124.229Z" fill="#423F63"/>
<path d="M227.961 124.423C227.897 124.423 227.897 124.423 227.961 124.423C227.832 124.294 227.185 124.1 226.797 123.971L226.733 123.906L226.797 123.841C226.991 123.906 227.897 124.165 228.026 124.294C228.026 124.359 228.026 124.423 227.961 124.423Z" fill="#423F63"/>
<path d="M227.126 123.97C227.061 123.97 227.061 123.97 227.126 123.97C227.061 123.97 227.061 123.906 227.061 123.906C227.061 123.906 228.225 121.707 228.742 120.737C228.742 120.737 228.807 120.672 228.807 120.737C228.807 120.737 228.872 120.802 228.807 120.802C228.29 121.772 227.19 123.906 227.126 123.97Z" fill="#423F63"/>
<path d="M201.963 104.634C201.898 104.634 201.898 104.634 201.963 104.634C201.898 104.634 201.898 104.57 201.898 104.57C201.898 104.57 202.286 102.888 203.709 102.112C204.679 101.595 205.843 101.66 207.201 102.242C207.201 102.242 207.266 102.306 207.201 102.306C207.201 102.306 207.136 102.371 207.136 102.306C205.778 101.724 204.679 101.724 203.774 102.177C202.351 102.953 201.963 104.57 201.963 104.634Z" fill="#365982"/>
<path d="M202.874 105.216C202.809 105.216 202.809 105.152 202.809 105.152C202.809 105.152 203.262 104.246 204.102 103.6C204.943 102.953 206.236 102.436 208.112 103.341C208.112 103.341 208.176 103.406 208.112 103.406C208.112 103.406 208.047 103.47 208.047 103.406C206.624 102.694 205.266 102.824 204.167 103.664C203.391 104.311 202.938 105.216 202.874 105.216C202.938 105.216 202.938 105.216 202.874 105.216Z" fill="#365982"/>
<path d="M204.102 105.217C204.038 105.217 204.038 105.152 204.038 105.152C205.719 102.824 207.659 103.988 207.659 103.988C207.659 103.988 207.724 104.052 207.659 104.052C207.659 104.052 207.594 104.117 207.594 104.052C207.53 104.052 205.784 103.018 204.102 105.217Z" fill="#365982"/>
<path d="M201.835 103.988C201.705 103.147 201.899 102.501 202.352 102.113C203.063 101.401 204.033 101.466 204.098 101.466C204.098 101.466 204.163 101.466 204.163 101.531C204.163 101.531 204.163 101.595 204.098 101.595C203.969 101.595 203.063 101.595 202.417 102.242C202.029 102.565 201.835 103.212 201.835 103.988C201.899 103.988 201.899 103.988 201.835 103.988Z" fill="#423F63"/>
<path d="M206.881 106.962C206.817 106.962 206.817 106.962 206.752 106.962C206.299 106.898 206.041 106.445 206.041 106.445V106.38H206.105C206.105 106.38 206.364 106.768 206.752 106.833C207.011 106.898 207.269 106.768 207.528 106.574H207.593V106.639C207.334 106.833 207.075 106.962 206.881 106.962Z" fill="#365982"/>
<path d="M206.877 107.868C206.748 107.868 206.554 107.804 206.425 107.739C205.972 107.48 205.778 106.898 205.778 106.898C205.778 106.898 205.778 106.834 205.843 106.834C205.843 106.834 205.907 106.834 205.907 106.898C205.907 106.898 206.037 107.48 206.489 107.674C206.748 107.804 207.007 107.804 207.33 107.674C207.33 107.674 207.395 107.674 207.395 107.739C207.395 107.739 207.395 107.804 207.33 107.804C207.201 107.804 207.071 107.868 206.877 107.868Z" fill="#365982"/>
<path d="M82.8372 114.464C82.8372 114.464 83.4193 116.727 85.036 117.245C86.6527 117.762 87.2347 116.404 88.1401 117.245C89.0455 118.085 90.7269 119.185 92.9903 117.891C95.2537 116.598 94.025 116.339 95.2537 117.115C96.4824 117.891 98.4872 116.339 98.3578 115.046C98.2285 113.688 96.6118 112.33 96.2237 109.226C95.9004 106.51 94.6717 103.664 91.8262 104.052C88.9808 104.44 86.4587 105.475 85.618 108.967C84.9067 112.459 82.1259 111.748 82.8372 114.464Z" fill="#FF7622"/>
<path d="M90.1482 120.413L94.2223 119.702C94.2223 119.702 93.705 115.046 94.093 112.912C94.4163 111.424 90.1482 109.226 90.1482 109.226V120.413Z" fill="#E39679"/>
<path d="M94.1544 106.057C94.1544 106.057 97.5172 112.395 94.3484 114.464C92.3437 115.757 88.3989 109.873 88.5282 108.126C88.7222 106.38 93.7018 104.44 94.1544 106.057Z" fill="#E39679"/>
<path d="M90.0183 110.842C90.0183 110.842 88.725 109.549 88.5309 110.454C88.3369 111.36 89.889 112.588 90.3417 112.136C90.7297 111.618 90.0183 110.842 90.0183 110.842Z" fill="#E39679"/>
<path d="M94.1611 105.54C94.1611 105.54 91.7683 104.958 91.1863 108.127C90.5396 111.554 87.5002 110.261 87.5002 110.261C87.5002 110.261 85.9481 104.182 94.1611 105.54Z" fill="#FF7622"/>
<path d="M91.6993 110.842C91.8421 110.842 91.9579 110.726 91.9579 110.584C91.9579 110.441 91.8421 110.325 91.6993 110.325C91.5564 110.325 91.4406 110.441 91.4406 110.584C91.4406 110.726 91.5564 110.842 91.6993 110.842Z" fill="#00519C"/>
<path d="M93.9677 114.658C93.9677 114.658 91.8983 114.852 90.5403 112.847C90.2169 112.395 90.5403 114.723 91.7043 115.822C92.8683 116.986 94.0971 117.503 94.0971 117.503C94.0971 117.503 93.8384 115.369 93.9677 114.658Z" fill="#DB774A"/>
<path d="M90.0185 111.747C89.8892 111.23 89.7598 110.907 89.5012 110.777C89.3072 110.648 89.0485 110.777 89.0485 110.777H88.9838V110.713C88.9838 110.713 89.2425 110.583 89.5012 110.713C89.8245 110.842 90.0185 111.165 90.0185 111.747C90.0832 111.747 90.0832 111.747 90.0185 111.747Z" fill="#423F63"/>
<path d="M92.0216 112.33C92.3073 112.33 92.5389 112.098 92.5389 111.813C92.5389 111.527 92.3073 111.295 92.0216 111.295C91.7358 111.295 91.5042 111.527 91.5042 111.813C91.5042 112.098 91.7358 112.33 92.0216 112.33Z" fill="#DB774A"/>
<path d="M89.7624 111.489C89.3744 110.907 89.439 110.713 89.439 110.648H89.5037V110.713C89.5037 110.713 89.439 110.907 89.7624 111.359C89.8271 111.489 89.8271 111.489 89.7624 111.489C89.8271 111.489 89.8271 111.489 89.7624 111.489Z" fill="#423F63"/>
<path d="M91.8973 109.614C91.962 109.873 91.6386 109.679 91.3153 109.808C90.9919 109.937 90.8626 110.261 90.7332 110.002C90.6686 109.743 90.8626 109.485 91.1212 109.355C91.5093 109.291 91.8326 109.355 91.8973 109.614Z" fill="#FF7622"/>
<path d="M94.5457 108.708C94.6104 108.967 94.287 108.773 93.9637 108.902C93.6404 109.032 93.511 109.355 93.3817 109.096C93.317 108.838 93.511 108.579 93.7697 108.45C94.1577 108.32 94.4811 108.45 94.5457 108.708Z" fill="#FF7622"/>
<path d="M95.0634 111.489C95.3491 111.489 95.5808 111.258 95.5808 110.972C95.5808 110.686 95.3491 110.455 95.0634 110.455C94.7777 110.455 94.5461 110.686 94.5461 110.972C94.5461 111.258 94.7777 111.489 95.0634 111.489Z" fill="#DB774A"/>
<path d="M94.2873 111.36C94.2226 111.36 94.0932 111.295 93.5759 110.778V110.713H93.6406C93.8346 110.907 94.0932 111.166 94.2226 111.23C94.1579 111.036 93.8992 110.584 93.7052 110.131V110.066H93.7699C94.0286 110.584 94.3519 111.166 94.2873 111.36C94.3519 111.295 94.3519 111.295 94.2873 111.36Z" fill="#423F63"/>
<path d="M94.0267 112.589C93.7033 112.589 93.38 111.942 93.38 111.877V111.812H93.4446C93.574 112.071 93.8327 112.459 94.0267 112.459C94.0913 112.459 94.2853 112.33 94.35 111.683C94.35 111.683 94.35 111.618 94.4147 111.618L94.4794 111.683C94.4147 112.265 94.2853 112.524 94.0267 112.589Z" fill="#423F63"/>
<path d="M94.3485 110.066C94.4913 110.066 94.6071 109.95 94.6071 109.807C94.6071 109.664 94.4913 109.549 94.3485 109.549C94.2056 109.549 94.0898 109.664 94.0898 109.807C94.0898 109.95 94.2056 110.066 94.3485 110.066Z" fill="#00519C"/>
<path d="M89.0471 110.519C88.8531 110.519 88.6591 110.519 88.4651 110.454C88.4651 110.454 88.4004 110.454 88.4004 110.389C88.4004 110.389 88.4004 110.325 88.4651 110.325C90.5991 110.583 91.0518 109.355 91.5692 108.061C91.6985 107.673 91.8925 107.285 92.0865 106.897C92.9272 105.345 93.8973 105.41 93.9619 105.41C93.9619 105.41 94.0266 105.41 94.0266 105.475C94.0266 105.475 94.0266 105.539 93.9619 105.539C93.8973 105.539 92.9919 105.539 92.2159 106.962C92.0219 107.285 91.8925 107.738 91.7632 108.126C91.3105 109.355 90.8578 110.519 89.0471 110.519Z" fill="#DB774A"/>
<path d="M87.2352 162.06C87.2352 162.06 99.3284 164.389 100.686 162.707C102.044 161.026 99.0697 142.013 94.2195 143.371C89.3693 144.729 87.2352 162.06 87.2352 162.06Z" fill="#7ACFD0"/>
<path d="M89.0474 119.831C89.0474 119.831 86.3313 119.702 84.0679 122.677C81.8045 125.652 80.8991 132.701 78.1183 132.377C76.6309 132.248 76.7603 120.413 76.4369 117.18C76.0489 113.3 73.2035 111.812 74.1088 114.076C76.1136 118.991 73.3975 129.144 74.3675 134.059C75.4022 139.103 81.9985 138.391 85.1026 131.666C88.336 125.005 89.0474 119.831 89.0474 119.831Z" fill="#E39679"/>
<path d="M89.3729 179.392C89.3729 179.392 87.9501 152.619 88.2735 140.396H99.9139C99.9139 140.396 100.431 167.751 99.3319 179.909C99.3319 179.909 103.923 180.814 102.177 181.138C100.496 181.461 97.1332 180.944 97.1332 180.944C97.1332 180.944 94.4171 149.191 93.835 145.828L91.1836 180.944C91.2483 180.814 89.8256 181.073 85.4281 181.332C84.3933 181.332 89.3729 179.392 89.3729 179.392Z" fill="#E39679"/>
<path d="M86.3337 141.495C86.3337 141.495 88.2738 175.576 88.2738 176.352H92.2186L93.9647 147.186L95.9047 176.352L100.238 175.964C100.238 175.964 101.208 143.759 100.755 140.719C100.69 140.719 88.8558 141.366 86.3337 141.495Z" fill="#00519C"/>
<path d="M100.69 140.655C100.69 140.655 98.5562 128.756 98.6208 121.642C98.6855 114.593 86.3337 119.831 86.3337 119.831C86.3337 119.831 87.4978 136.839 86.3337 141.366C86.3337 141.366 94.5467 142.336 100.69 140.655Z" fill="#E39679"/>
<path d="M97.1309 180.362L101.528 180.815V180.426C101.528 180.426 103.404 181.009 103.598 181.397C103.792 181.785 97.1309 181.267 97.1309 181.267V180.362Z" fill="#00519C"/>
<path d="M91.2444 180.362L86.8469 180.815V180.427C86.8469 180.427 84.9715 181.009 84.7775 181.397C84.5835 181.785 91.2444 181.267 91.2444 181.267V180.362Z" fill="#00519C"/>
<path d="M86.8524 125.457C86.8524 125.457 94.4833 122.483 98.0401 124.358C100.045 125.393 100.756 141.237 100.756 141.237C100.756 141.237 90.4738 142.595 86.3997 141.431C86.335 141.366 86.529 128.368 86.8524 125.457Z" fill="white"/>
<path d="M88.8538 156.369C88.8538 156.369 89.0478 119.896 88.4658 119.249C87.8838 118.538 84.1976 119.766 82.7102 123.129C80.8995 127.268 79.6708 130.76 79.6708 130.76L85.3617 133.088C85.3617 133.088 83.7449 164.259 84.5856 163.806C85.3617 163.289 88.5951 164.647 88.8538 156.369Z" fill="#7ACFD0"/>
<path d="M95.8384 118.15C95.8384 118.15 97.9078 151.26 98.1018 153.588C98.7485 159.538 100.753 164.388 101.723 163.095C102.693 161.801 100.171 126.104 99.8479 125.975C99.4598 125.781 100.042 127.591 100.042 127.591C100.042 127.591 101.788 128.691 103.857 130.566C103.857 130.566 106.638 126.686 105.603 125.522C103.728 123.388 98.4251 117.05 95.8384 118.15Z" fill="#7ACFD0"/>
<path d="M84.2018 115.046C83.8785 115.046 83.6844 114.916 83.6844 114.916V114.852H83.7491C83.7491 114.852 84.0725 115.046 84.5251 114.981C84.9778 114.852 85.6245 114.399 86.3359 112.847C86.6592 112.071 86.9179 111.166 87.1119 110.131C87.6939 107.479 88.276 104.699 92.2854 104.699C92.2854 104.699 92.3501 104.699 92.3501 104.763C92.3501 104.763 92.3501 104.828 92.2854 104.828C88.3406 104.828 87.7586 107.544 87.2412 110.196C87.0472 111.101 86.8532 112.071 86.4652 112.912C85.8832 114.205 85.2365 114.916 84.5898 115.11C84.3958 115.046 84.2665 115.046 84.2018 115.046Z" fill="#DB774A"/>
<path d="M86.8519 115.887C86.7872 115.887 86.7872 115.887 86.8519 115.887C86.7872 115.822 86.7872 115.757 86.8519 115.757C86.8519 115.757 87.4339 115.628 87.9513 115.046C88.6626 114.335 88.9213 113.171 88.7273 111.748C88.7273 111.748 88.7273 111.683 88.792 111.683C88.792 111.683 88.8566 111.683 88.8566 111.748C89.1153 113.559 88.598 114.593 88.0806 115.111C87.4986 115.757 86.8519 115.887 86.8519 115.887Z" fill="#DB774A"/>
<path d="M88.854 109.549C88.7894 109.549 88.7894 109.549 88.854 109.549C88.4014 107.156 91.8935 105.345 91.8935 105.345H91.9582V105.41C91.8935 105.41 88.5307 107.221 88.854 109.549Z" fill="#DB774A"/>
<path d="M95.8396 115.886C95.7749 115.886 95.7749 115.822 95.7749 115.822C97.327 113.752 96.1629 112.524 96.0982 112.459V112.394H96.1629C96.2276 112.394 97.521 113.688 95.8396 115.886C95.9042 115.886 95.9042 115.886 95.8396 115.886Z" fill="#DB774A"/>
<path d="M98.4259 119.703C98.4259 119.703 106.316 124.1 108.967 130.567C111.812 137.616 101.724 139.233 101.207 144.6C100.883 148.028 99.3313 142.919 100.754 140.655C102.629 137.745 107.415 134.964 105.281 131.925C101.789 127.01 98.0379 124.294 98.0379 124.294C98.0379 124.294 96.8739 121.707 98.4259 119.703Z" fill="#E39679"/>
<path d="M103.923 130.566C103.923 130.566 107.544 126.945 107.027 126.104C105.604 123.776 100.883 118.279 96.6798 118.021C96.6798 118.021 95.4511 124.164 100.107 127.592C100.107 127.592 103.276 130.308 103.923 130.566Z" fill="#7ACFD0"/>
<path d="M92.3466 147.122C92.282 147.057 92.3466 146.992 92.3466 146.992L95.8388 146.928C95.8388 146.928 95.9034 146.928 95.9034 146.992C95.9034 146.992 95.9034 147.057 95.8388 147.057L92.3466 147.122Z" fill="#FFFAF0"/>
<path d="M93.9639 147.186C93.8992 147.186 93.8992 147.186 93.9639 147.186L93.5759 141.883C93.5759 141.883 93.5759 141.819 93.6406 141.819C93.6406 141.819 93.7052 141.819 93.7052 141.883L93.9639 147.186Z" fill="#FFFAF0"/>
<path d="M88.8502 142.401C88.7855 142.336 88.8502 142.271 88.8502 142.271C88.9149 142.271 96.6105 142.142 97.4512 141.819H97.5158V141.883C96.6751 142.207 89.1735 142.401 88.8502 142.401Z" fill="#FFFAF0"/>
<path d="M93.8973 145.893C93.8326 145.829 93.8326 145.764 93.8973 145.764C93.8973 145.764 94.9967 145.699 95.1907 141.69C95.1907 141.69 95.1907 141.625 95.2553 141.625C95.2553 141.625 95.32 141.625 95.32 141.69C95.126 145.764 93.962 145.893 93.8973 145.893Z" fill="#FFFAF0"/>
<path d="M100.685 145.699C100.621 145.505 100.621 142.919 101.332 142.078H101.397V142.143C100.685 142.983 100.75 145.635 100.685 145.699C100.75 145.699 100.75 145.699 100.685 145.699Z" fill="#423F63"/>
<path d="M100.24 144.729C100.111 143.695 100.887 141.754 100.887 141.69C100.887 141.69 100.951 141.625 100.951 141.69C100.951 141.69 101.016 141.754 100.951 141.754C101.016 141.69 100.24 143.695 100.24 144.729C100.305 144.729 100.305 144.665 100.24 144.729Z" fill="#423F63"/>
<path d="M101.727 142.142C101.08 142.013 100.692 141.237 100.627 141.172V141.108H100.692C100.692 141.108 101.08 141.884 101.662 142.013C101.791 142.013 101.791 142.078 101.727 142.142Z" fill="#423F63"/>
<path d="M75.0809 116.662C74.8222 114.658 73.9169 113.494 73.9169 113.494V113.429H73.9815C73.9815 113.429 74.8869 114.593 75.0809 116.662C75.1456 116.662 75.1456 116.662 75.0809 116.662Z" fill="#423F63"/>
<path d="M75.5988 116.404C75.5342 116.404 75.5342 116.404 75.5988 116.404C75.5342 116.339 75.0815 114.399 74.4995 113.17V113.106H74.5641C75.1461 114.334 75.5988 116.274 75.5988 116.339C75.6635 116.404 75.5988 116.404 75.5988 116.404Z" fill="#423F63"/>
<path d="M74.7555 116.857C74.6908 116.792 74.6908 116.792 74.7555 116.728C74.7555 116.728 75.4022 116.34 75.8548 116.275C75.8548 116.275 75.9195 116.275 75.9195 116.34C75.9195 116.34 75.9195 116.404 75.8548 116.404C75.4022 116.469 74.8201 116.857 74.7555 116.857Z" fill="#423F63"/>
<path d="M126.496 153.653H125.979H124.297H123.78L117.054 177.258H124.297H125.979H133.222L126.496 153.653Z" fill="white"/>
<mask id="mask0_560_5287" style="mask-type:luminance" maskUnits="userSpaceOnUse" x="117" y="153" width="17" height="25">
<path d="M126.486 153.654H125.969H124.287H123.77L117.044 177.258H124.287H125.969H133.212L126.486 153.654Z" fill="white"/>
</mask>
<g mask="url(#mask0_560_5287)">
<path d="M134.571 155.206H116.334V159.28H134.571V155.206Z" fill="#FF7622"/>
</g>
<mask id="mask1_560_5287" style="mask-type:luminance" maskUnits="userSpaceOnUse" x="117" y="153" width="17" height="25">
<path d="M126.486 153.654H125.969H124.287H123.77L117.044 177.258H124.287H125.969H133.212L126.486 153.654Z" fill="white"/>
</mask>
<g mask="url(#mask1_560_5287)">
<path d="M134.571 163.095H116.334V167.17H134.571V163.095Z" fill="#FF7622"/>
</g>
<mask id="mask2_560_5287" style="mask-type:luminance" maskUnits="userSpaceOnUse" x="117" y="153" width="17" height="25">
<path d="M126.486 153.654H125.969H124.287H123.77L117.044 177.258H124.287H125.969H133.212L126.486 153.654Z" fill="white"/>
</mask>
<g mask="url(#mask2_560_5287)">
<path d="M134.571 170.791H116.334V174.865H134.571V170.791Z" fill="#FF7622"/>
</g>
<mask id="mask3_560_5287" style="mask-type:luminance" maskUnits="userSpaceOnUse" x="117" y="153" width="17" height="25">
<path d="M126.486 153.654H125.969H124.287H123.77L117.044 177.258H124.287H125.969H133.212L126.486 153.654Z" fill="white"/>
</mask>
<g mask="url(#mask3_560_5287)">
<path d="M134.117 175.9H115.815V177.258H134.117V175.9Z" fill="#E6E6E6"/>
</g>
<path d="M135.417 177.258H114.788V181.202H135.417V177.258Z" fill="#FF7622"/>
<path d="M160.308 178.033L160.438 178.486L160.955 180.167L161.149 180.62L185.659 179.844L183.46 172.989L182.943 171.308L180.744 164.453L160.308 178.033Z" fill="white"/>
<mask id="mask4_560_5287" style="mask-type:luminance" maskUnits="userSpaceOnUse" x="146" y="156" width="22" height="26">
<path d="M165.314 181.419L165.706 181.158L167.15 180.154L167.523 179.832L159.335 156.717L153.472 160.895L152.028 161.899L146.165 166.077L165.314 181.419Z" fill="white"/>
</mask>
<g mask="url(#mask4_560_5287)">
<path d="M159.309 169.827L164.851 187.201L168.732 185.963L163.19 168.589L159.309 169.827Z" fill="#FF7622"/>
</g>
<mask id="mask5_560_5287" style="mask-type:luminance" maskUnits="userSpaceOnUse" x="158" y="160" width="22" height="26">
<path d="M177.348 185.436L177.74 185.175L179.185 184.171L179.557 183.849L171.369 160.734L165.507 164.912L164.062 165.916L158.2 170.094L177.348 185.436Z" fill="white"/>
</mask>
<g mask="url(#mask5_560_5287)">
<path d="M166.799 167.485L172.341 184.859L176.222 183.621L170.68 166.247L166.799 167.485Z" fill="#FF7622"/>
</g>
<mask id="mask6_560_5287" style="mask-type:luminance" maskUnits="userSpaceOnUse" x="169" y="164" width="23" height="26">
<path d="M189.146 189.372L189.538 189.112L190.983 188.108L191.355 187.785L183.167 164.671L177.305 168.849L175.86 169.853L169.998 174.031L189.146 189.372Z" fill="white"/>
</mask>
<g mask="url(#mask6_560_5287)">
<path d="M174.139 165.106L179.681 182.48L183.562 181.242L178.02 163.868L174.139 165.106Z" fill="#FF7622"/>
</g>
<mask id="mask7_560_5287" style="mask-type:luminance" maskUnits="userSpaceOnUse" x="175" y="167" width="22" height="26">
<path d="M194.647 192.107L195.039 191.847L196.484 190.843L196.856 190.52L188.669 167.406L182.806 171.584L181.361 172.588L175.499 176.766L194.647 192.107Z" fill="white"/>
</mask>
<g mask="url(#mask7_560_5287)">
<path d="M179.18 164.052L184.742 181.488L186.036 181.075L180.474 163.639L179.18 164.052Z" fill="#E6E6E6"/>
</g>
<path d="M180.062 162.339L186.331 181.993L190.09 180.794L183.82 161.14L180.062 162.339Z" fill="#FF7622"/>
<path d="M43.3939 153.589H40.8072V181.009H43.3939V153.589Z" fill="#00519C"/>
<path d="M74.1783 153.588H71.5915V181.008H74.1783V153.588Z" fill="#00519C"/>
<path d="M76.3103 157.275H38.6082V169.239H76.3103V157.275Z" fill="#3B698C"/>
<path d="M76.3103 157.275H38.6082V169.239H76.3103V157.275Z" fill="white"/>
<mask id="mask8_560_5287" style="mask-type:luminance" maskUnits="userSpaceOnUse" x="38" y="129" width="29" height="40">
<path d="M55.3327 129.497L38.8342 163.395L49.5909 168.631L66.0893 134.733L55.3327 129.497Z" fill="white"/>
</mask>
<g mask="url(#mask8_560_5287)">
<path d="M47.5178 147.772L36.3113 170.797L39.7418 172.466L50.9483 149.441L47.5178 147.772Z" fill="#FF7622"/>
</g>
<mask id="mask9_560_5287" style="mask-type:luminance" maskUnits="userSpaceOnUse" x="43" y="136" width="28" height="40">
<path d="M59.8854 136.691L43.387 170.589L54.1436 175.824L70.642 141.927L59.8854 136.691Z" fill="white"/>
</mask>
<g mask="url(#mask9_560_5287)">
<path d="M55.5217 147.728L44.3152 170.753L47.7457 172.422L58.9522 149.397L55.5217 147.728Z" fill="#FF7622"/>
</g>
<mask id="mask10_560_5287" style="mask-type:luminance" maskUnits="userSpaceOnUse" x="48" y="143" width="28" height="41">
<path d="M64.5109 143.983L48.0125 177.881L58.7692 183.117L75.2676 149.219L64.5109 143.983Z" fill="white"/>
</mask>
<g mask="url(#mask10_560_5287)">
<path d="M63.6831 147.752L52.4766 170.777L55.9071 172.446L67.1136 149.421L63.6831 147.752Z" fill="#FF7622"/>
</g>
<mask id="mask11_560_5287" style="mask-type:luminance" maskUnits="userSpaceOnUse" x="52" y="151" width="28" height="40">
<path d="M69.067 151.178L52.5686 185.076L63.3253 190.311L79.8237 156.413L69.067 151.178Z" fill="white"/>
</mask>
<g mask="url(#mask11_560_5287)">
<path d="M71.7129 147.65L60.5064 170.675L63.9369 172.345L75.1434 149.32L71.7129 147.65Z" fill="#FF7622"/>
</g>
<mask id="mask12_560_5287" style="mask-type:luminance" maskUnits="userSpaceOnUse" x="56" y="157" width="29" height="41">
<path d="M73.2656 157.897L56.7672 191.795L67.5238 197.031L84.0223 163.133L73.2656 157.897Z" fill="white"/>
</mask>
<g mask="url(#mask12_560_5287)">
<path d="M79.171 147.683L67.9645 170.708L71.395 172.378L82.6015 149.353L79.171 147.683Z" fill="#FF7622"/>
</g>
<path d="M219.102 153.589H216.515V181.009H219.102V153.589Z" fill="#00519C"/>
<path d="M249.88 153.589H247.293V181.009H249.88V153.589Z" fill="#00519C"/>
<path d="M252.073 157.275H214.371V169.239H252.073V157.275Z" fill="#3B698C"/>
<path d="M252.073 157.275H214.371V169.239H252.073V157.275Z" fill="white"/>
<mask id="mask13_560_5287" style="mask-type:luminance" maskUnits="userSpaceOnUse" x="214" y="129" width="28" height="40">
<path d="M231.058 129.459L214.559 163.357L225.316 168.592L241.814 134.694L231.058 129.459Z" fill="white"/>
</mask>
<g mask="url(#mask13_560_5287)">
<path d="M223.209 147.792L212.002 170.817L215.433 172.486L226.639 149.461L223.209 147.792Z" fill="#FF7622"/>
</g>
<mask id="mask14_560_5287" style="mask-type:luminance" maskUnits="userSpaceOnUse" x="219" y="136" width="28" height="40">
<path d="M235.609 136.653L219.111 170.551L229.867 175.786L246.366 141.888L235.609 136.653Z" fill="white"/>
</mask>
<g mask="url(#mask14_560_5287)">
<path d="M231.223 147.748L220.016 170.773L223.447 172.442L234.653 149.417L231.223 147.748Z" fill="#FF7622"/>
</g>
<mask id="mask15_560_5287" style="mask-type:luminance" maskUnits="userSpaceOnUse" x="223" y="143" width="28" height="41">
<path d="M240.235 143.944L223.737 177.842L234.493 183.078L250.992 149.18L240.235 143.944Z" fill="white"/>
</mask>
<g mask="url(#mask15_560_5287)">
<path d="M239.41 147.713L228.203 170.738L231.634 172.407L242.84 149.382L239.41 147.713Z" fill="#FF7622"/>
</g>
<mask id="mask16_560_5287" style="mask-type:luminance" maskUnits="userSpaceOnUse" x="228" y="151" width="28" height="40">
<path d="M244.791 151.139L228.293 185.037L239.05 190.272L255.548 156.374L244.791 151.139Z" fill="white"/>
</mask>
<g mask="url(#mask16_560_5287)">
<path d="M247.415 147.669L236.208 170.694L239.639 172.364L250.845 149.339L247.415 147.669Z" fill="#FF7622"/>
</g>
<mask id="mask17_560_5287" style="mask-type:luminance" maskUnits="userSpaceOnUse" x="232" y="157" width="28" height="40">
<path d="M248.987 157.858L232.488 191.756L243.245 196.992L259.743 163.094L248.987 157.858Z" fill="white"/>
</mask>
<g mask="url(#mask17_560_5287)">
<path d="M254.869 147.703L243.662 170.728L247.093 172.397L258.299 149.372L254.869 147.703Z" fill="#FF7622"/>
</g>
<path d="M199.964 88.9192C199.964 82.8404 195.049 77.9255 188.97 77.9255C182.891 77.9255 177.976 82.8404 177.976 88.9192C177.976 94.9981 182.891 99.913 188.97 99.913C190.522 99.913 192.009 99.5897 193.367 99.0076C194.725 99.8483 197.635 101.724 197.7 101.465C197.7 101.271 196.536 99.2016 195.631 97.6496C198.282 95.6448 199.964 92.476 199.964 88.9192Z" fill="#FF7622"/>
<path d="M195.69 87.2383H194.331C194.202 86.5269 193.943 85.8156 193.555 85.1689L194.396 84.3282C194.784 83.9402 194.784 83.2288 194.396 82.8408C194.008 82.4528 193.297 82.4528 192.909 82.8408L192.133 83.6168C191.551 83.1642 190.839 82.9055 190.063 82.7115V81.6121C190.063 81.0301 189.611 80.5774 189.029 80.5774C188.447 80.5774 187.994 81.0301 187.994 81.6121V82.7115C187.283 82.8408 186.571 83.1642 185.989 83.5522L185.213 82.7761C184.825 82.3881 184.114 82.3881 183.726 82.7761C183.338 83.1642 183.338 83.8755 183.726 84.2635L184.502 85.0396C184.114 85.6863 183.79 86.3976 183.661 87.109H182.497C181.915 87.109 181.462 87.5617 181.462 88.1437C181.462 88.7257 181.915 89.1784 182.497 89.1784H183.726C183.855 89.8897 184.178 90.5364 184.566 91.0538L183.596 92.0238C183.208 92.4118 183.208 93.1232 183.596 93.5112C183.79 93.7052 184.049 93.8346 184.372 93.8346C184.696 93.8346 184.89 93.7052 185.148 93.5112L186.183 92.4765C186.765 92.8645 187.347 93.1232 188.059 93.2525V94.6752C188.059 95.2573 188.511 95.71 189.093 95.71C189.675 95.71 190.128 95.2573 190.128 94.6752V93.2525C190.839 93.1232 191.486 92.8645 192.068 92.4765L193.103 93.5112C193.297 93.7052 193.555 93.8346 193.879 93.8346C194.202 93.8346 194.396 93.7052 194.655 93.5112C195.043 93.1232 195.043 92.4118 194.655 92.0238L193.62 90.9891C194.008 90.4071 194.267 89.8251 194.461 89.1137H195.884C196.466 89.1137 196.918 88.661 196.918 88.079C196.918 87.497 196.272 87.2383 195.69 87.2383ZM189.029 91.2478C187.412 91.2478 186.054 89.9544 186.054 88.273C186.054 86.5916 187.347 85.2982 189.029 85.2982C190.71 85.2982 192.003 86.5916 192.003 88.273C192.003 89.9544 190.645 91.2478 189.029 91.2478Z" fill="white"/>
<path d="M231.648 46.0444C231.001 60.8536 238.632 74.3048 261.589 78.379C284.547 82.4531 270.449 65.3158 259.261 58.3315C248.074 51.3473 232.294 31.2352 231.648 46.0444Z" fill="#BDE9FC"/>
<path opacity="0.2" d="M236.628 47.2081C236.757 44.2333 237.468 42.6812 238.697 42.0992C234.688 39.7711 231.907 39.9651 231.648 46.044C231.001 60.6592 238.374 73.8517 260.426 78.1199C242.254 72.9464 236.11 60.6592 236.628 47.2081Z" fill="#BDE9FC"/>
</g>
<defs>
<clipPath id="clip0_560_5287">
<rect width="300" height="205.648" fill="white"/>
</clipPath>
</defs>
</svg>
